<svg width="180" height="140" viewBox="0 0 180 140" fill="none" xmlns="http://www.w3.org/2000/svg">
<g filter="url(#filter0_d)">
<rect x="10" y="7" width="160" height="120" rx="16.3718" fill="#F3FFF8"/>
<rect x="10.0236" y="7.02361" width="159.953" height="119.953" rx="16.3482" stroke="#D17150" stroke-width="0.0472264"/>
</g>
<mask id="mask0" mask-type="alpha" maskUnits="userSpaceOnUse" x="10" y="7" width="160" height="120">
<rect x="10.0236" y="7.02361" width="159.953" height="119.953" rx="16.3482" fill="#FFF9F3" stroke="#D17150" stroke-width="0.0472264"/>
</mask>
<g mask="url(#mask0)">
<path d="M27.2124 42.4713C27.2124 42.4713 29.5807 71.9667 56.4926 71.9667C60.4755 71.9667 63.9202 71.3208 66.9344 70.2443C84.0504 63.8931 85.7727 42.4713 85.7727 42.4713H27.2124Z" fill="#699C75"/>
<path d="M66.9341 70.2443C84.0501 63.8931 85.7724 42.4713 85.7724 42.4713H79.6365C78.6677 45.3777 78.7753 49.4684 78.2371 51.406C77.1606 56.2502 75.0077 60.879 71.9935 64.9696C70.4865 66.9073 68.8717 68.7373 66.9341 70.2443Z" fill="#7FB22F"/>
<path d="M27.2124 42.471C27.2124 44.7316 30.4418 46.8845 35.6089 48.3916C37.4389 48.9298 39.4842 49.3604 41.7448 49.791C46.0507 50.5445 51.1102 50.9751 56.6002 50.9751C64.7814 50.9751 72.2091 50.0063 77.5915 48.3916C82.7586 46.9922 85.8804 44.8392 85.8804 42.471C85.8804 39.3492 80.0674 36.658 71.4556 35.1509C67.042 34.3974 61.9826 33.9668 56.6002 33.9668C40.3454 33.9668 27.2124 37.8421 27.2124 42.471Z" fill="#8CBA97"/>
<path d="M27.2124 42.471C27.2124 45.5927 33.0254 48.2839 41.6372 49.791C42.8213 48.0686 43.7901 46.131 45.1896 44.5163C46.1584 43.4398 47.4502 42.471 48.6343 41.6098C53.8014 38.1651 59.722 36.1197 65.7503 35.3662C67.5803 35.1509 69.5179 35.0433 71.3479 35.1509C66.9344 34.3974 61.875 33.9668 56.4926 33.9668C40.3454 34.0744 27.2124 37.8421 27.2124 42.471Z" fill="#30653C"/>
<path d="M35.6089 48.391C37.4389 48.9293 39.4842 49.3599 41.7448 49.7904C46.0507 50.544 51.1101 50.9746 56.6002 50.9746C64.7814 50.9746 72.2091 50.0057 77.5915 48.391C75.7614 47.8528 73.7161 47.4222 71.5632 47.0993C67.1496 46.3457 62.0902 45.9151 56.7078 45.9151C48.3113 45.8075 40.8836 46.884 35.6089 48.391Z" fill="white"/>
</g>
<defs>
<filter id="filter0_d" x="0" y="0" width="180" height="140" filterUnits="userSpaceOnUse" color-interpolation-filters="sRGB">
<feFlood flood-opacity="0" result="BackgroundImageFix"/>
<feColorMatrix in="SourceAlpha" type="matrix" values="0 0 0 0 0 0 0 0 0 0 0 0 0 0 0 0 0 0 127 0"/>
<feOffset dy="3"/>
<feGaussianBlur stdDeviation="5"/>
<feColorMatrix type="matrix" values="0 0 0 0 0.105486 0 0 0 0 0.243931 0 0 0 0 0.408333 0 0 0 0.08 0"/>
<feBlend mode="normal" in2="BackgroundImageFix" result="effect1_dropShadow"/>
<feBlend mode="normal" in="SourceGraphic" in2="effect1_dropShadow" result="shape"/>
</filter>
</defs>
</svg>
