<svg width="77" height="62" viewBox="0 0 77 62" fill="none" xmlns="http://www.w3.org/2000/svg">
<g clip-path="url(#clip0)">
<path d="M23.3835 50.6425L23.4239 52.0167C22.6964 57.3518 25.6064 60.666 30.9011 61.1914C36.1149 61.6764 41.2075 59.9789 41.2479 54.4013L41.2075 53.9163C43.1071 58.7664 45.1279 60.1001 50.1801 59.1301C52.8476 58.6047 55.5556 57.6347 57.0914 55.2905C58.6273 52.9867 57.8998 50.3596 56.2427 48.3792" fill="#63CCFF"/>
<path d="M32.5994 62.0003C32.0335 62.0003 31.4273 61.9599 30.821 61.9195C27.911 61.6366 25.6476 60.5453 24.233 58.7669C22.8588 57.029 22.3334 54.7252 22.6972 51.9769L22.6567 50.6431C22.6567 50.2389 22.9397 49.9156 23.3438 49.9156C23.748 49.9156 24.0713 50.1985 24.0713 50.6027L24.1118 51.9769C24.1118 52.0173 24.1118 52.0577 24.1118 52.0981C23.7884 54.4827 24.233 56.4228 25.3647 57.8374C26.5368 59.2924 28.4768 60.222 30.9827 60.4645C34.3373 60.7878 37.1665 60.1411 38.8236 58.6457C39.9553 57.6353 40.5616 56.1802 40.5616 54.4019L40.5211 53.9573C40.4807 53.5935 40.7232 53.2702 41.087 53.1894C41.4507 53.1085 41.7741 53.3106 41.8953 53.634C43.6737 58.2819 45.452 59.2924 50.0596 58.4032C53.293 57.7969 55.3543 56.6653 56.5264 54.8869C58.3047 52.2598 56.3647 49.5922 55.718 48.8647C55.4755 48.5818 55.5159 48.0968 55.7989 47.8543C56.0818 47.6118 56.5668 47.6522 56.8093 47.9351C58.911 50.4006 59.2747 53.3915 57.7389 55.6952C55.8797 58.484 52.6463 59.3732 50.3425 59.8178C46.0179 60.6666 43.5524 59.8582 41.6932 56.5844C41.3699 57.7969 40.7232 58.8478 39.7532 59.6965C38.0961 61.192 35.5903 62.0003 32.5994 62.0003Z" fill="#4A3B32"/>
<path fill-rule="evenodd" clip-rule="evenodd" d="M74.593 27.2408C73.3804 29.4637 71.1171 30.9592 68.8941 30.4338C68.0858 30.1508 66.9541 31.2017 66.752 32.2121C66.5095 33.748 66.3074 35.2838 65.7012 36.8197C63.6399 41.9527 60.2044 45.5902 55.0714 47.5302C50.1001 49.3894 45.048 50.1574 39.915 50.6424C35.9945 51.0061 32.0741 51.0465 28.1536 50.8849C25.2031 50.7636 22.4143 50.1574 19.7872 49.0257C18.3726 48.4194 17.2409 47.1261 16.0688 46.0348C14.7351 44.7819 13.4821 43.4077 12.2292 42.0335C11.3804 41.1039 10.8146 39.9318 10.5317 38.7193C10.3296 37.9918 10.9359 37.3451 9.96585 37.7897C7.33873 38.5172 4.99453 38.3555 2.89283 36.9813C2.16532 36.3751 1.76115 35.4051 1.84199 34.3138C2.00366 32.1717 2.85242 30.3125 4.87328 29.2617C6.44955 28.4129 6.65164 27.9683 8.42999 28.3321C9.07667 28.4937 9.52126 28.5341 10.0467 28.3725C10.4509 28.2108 10.4509 27.8471 10.4913 27.3216C10.6125 26.1091 10.4104 20.6528 10.6125 19.4807C10.7742 18.5107 11.0571 17.5407 11.34 16.5707C11.9059 14.7519 12.7142 13.0544 14.1692 11.6802C15.4626 10.4677 16.5943 9.05305 18.0089 7.92137C20.4339 5.98134 23.3439 4.93049 26.1731 4.08173C29.4874 3.11172 32.8016 2.42463 36.1562 1.81837C37.8537 1.49503 39.6321 1.49503 41.37 1.53545C43.6738 1.57586 45.9776 1.77795 48.7664 1.98004C51.1914 2.62671 53.9802 3.39464 56.769 4.12215C59.2344 4.80924 60.9319 6.46635 62.387 8.48721C64.0441 10.8314 65.6203 17.6619 66.4287 20.4911C66.7924 21.8653 66.752 22.1078 67.6412 21.7845C69.7025 20.7336 72.8954 21.1378 74.3505 22.6332C75.1992 23.6032 75.3609 25.8666 74.593 27.2408Z" fill="#FFD0BE"/>
<g opacity="0.6">
<path opacity="0.6" fill-rule="evenodd" clip-rule="evenodd" d="M26.3342 42.6002C24.1113 42.7214 22.5754 41.6706 22.4946 39.9731C22.4138 38.0735 23.7879 36.5376 25.728 36.4568C28.2743 36.2547 29.7293 37.5076 29.8909 39.0435C30.0122 40.9431 28.4763 42.4789 26.3342 42.6002Z" fill="#FD79E1"/>
</g>
<g opacity="0.6">
<path opacity="0.6" fill-rule="evenodd" clip-rule="evenodd" d="M48.9275 37.4674C48.8062 35.9315 50.0187 34.4361 52.6054 34.234C54.505 34.0319 56.1217 35.2848 56.3642 37.1844C56.5663 38.882 55.2325 40.1753 53.0096 40.3774C50.8271 40.6199 49.0891 39.367 48.9275 37.4674Z" fill="#FD79E1"/>
</g>
<path d="M35.5501 37.9919C35.8331 40.3765 37.2881 41.2657 39.5919 41.104C41.7744 40.9424 43.4315 39.8915 43.1486 37.4665C43.0677 36.5369 41.6127 36.5369 41.6936 37.4665C41.8552 39.0428 41.0065 39.4873 39.5919 39.649C38.2177 39.7703 37.2072 39.5682 37.0052 37.9919C36.8839 37.0623 35.4289 37.0623 35.5501 37.9919Z" fill="#4A3B32"/>
<path d="M31.8316 34.0308C34.8629 34.0308 34.8629 29.302 31.8316 29.302C28.8003 29.3424 28.8003 34.0308 31.8316 34.0308Z" fill="#4A3B32"/>
<path d="M45.7749 32.8997C48.8062 32.8997 48.8062 28.1709 45.7749 28.1709C42.7436 28.1709 42.7436 32.8997 45.7749 32.8997Z" fill="#4A3B32"/>
<path d="M32.2763 31.8882C33.4079 31.8882 33.4079 30.1099 32.2763 30.1099C31.1446 30.1099 31.1446 31.8882 32.2763 31.8882Z" fill="white"/>
<path d="M46.2197 30.7178C47.3513 30.7178 47.3513 28.9395 46.2197 28.9395C45.0476 28.9395 45.0476 30.7178 46.2197 30.7178Z" fill="white"/>
<path d="M38.3782 35.4867C38.8632 35.4462 39.3078 35.4058 39.7928 35.3654C40.4395 35.325 40.9649 34.8804 40.9649 34.1933C40.9649 33.587 40.4395 32.9808 39.7928 33.0212C39.3078 33.0616 38.8632 33.102 38.3782 33.1425C37.7316 33.1829 37.2061 33.6275 37.2061 34.3146C37.1657 34.9208 37.7316 35.5675 38.3782 35.4867Z" fill="#FFA4AE"/>
<path d="M25.2432 12.2057C25.2432 12.2057 25.1219 12.4078 24.839 12.8524C24.5965 13.2566 24.2327 13.8629 23.9498 14.7116C23.869 14.9137 23.8286 15.1562 23.7882 15.3583C23.7477 15.6008 23.7073 15.8433 23.7073 16.0858C23.7073 16.2071 23.7073 16.3283 23.7073 16.49V16.5708C23.7073 16.5708 23.7073 16.49 23.7073 16.5304V16.5708V16.6112V16.8133C23.7073 16.8941 23.7073 16.975 23.7073 17.0154L23.7477 17.1771C23.7477 17.2983 23.8286 17.3791 23.869 17.5004C24.0711 17.9046 24.4348 18.1471 25.0007 18.2683C25.5261 18.3896 26.2132 18.3896 26.8599 18.2683C27.1832 18.1875 27.547 18.1471 27.8703 18.0258C27.9107 18.0258 27.9915 17.9854 27.9915 17.9854L28.1128 17.945L28.3149 17.8642C28.4765 17.7833 28.6382 17.7025 28.7999 17.6217C29.4466 17.2579 30.1337 16.8133 30.7803 16.2879C31.427 15.7625 32.0333 15.1966 32.4374 14.6308C32.6395 14.3479 32.7608 14.0649 32.7608 13.8629C32.7608 13.782 32.7608 13.7012 32.7608 13.6608C32.7608 13.6203 32.7204 13.6203 32.7204 13.5799L32.6395 13.4183C32.5991 13.3778 32.5991 13.3778 32.5991 13.3778C32.5991 13.3374 32.5587 13.3374 32.5991 13.3778C32.5991 13.4183 32.6395 13.4183 32.6799 13.4587C32.6799 13.4587 32.7608 13.5395 32.8416 13.5799C32.882 13.5799 32.9224 13.6203 32.9629 13.6203C33.0033 13.6608 33.0841 13.6608 33.1245 13.6608C33.2458 13.7012 33.367 13.7012 33.4479 13.6608C33.4883 13.6608 33.5691 13.6203 33.6095 13.6203C33.65 13.6203 33.6904 13.5799 33.7308 13.5799C33.7712 13.5799 33.8116 13.5395 33.852 13.5395C33.8925 13.5395 33.8925 13.4991 33.9329 13.4991C33.9733 13.4991 33.9733 13.4587 33.9733 13.4587L34.0137 13.4183L34.0541 13.3778C34.0945 13.3374 34.0541 13.3778 34.0137 13.4587C33.8925 13.7012 33.7712 14.1054 33.65 14.5499C33.6095 14.752 33.5287 14.9945 33.4883 15.1966C33.4479 15.3987 33.4074 15.6412 33.4074 15.8029V15.8433C33.4074 15.9645 33.4074 15.722 33.4074 15.7625V15.8029V15.8837V16.0858V16.2879C33.4074 16.2879 33.4074 16.3283 33.4479 16.3283C33.4479 16.3687 33.4883 16.5304 33.5287 16.6112C33.7308 17.0558 34.2158 17.5408 34.9029 17.8642C35.2262 18.0258 35.6304 18.1471 35.9941 18.2279C36.3579 18.3087 36.7621 18.3087 37.1258 18.3087C37.3683 18.3087 37.6513 18.2683 37.8129 18.2279C38.015 18.2279 38.2171 18.1471 38.3788 18.1471C38.7425 18.0662 39.0254 17.945 39.2275 17.7833C39.4296 17.6217 39.5913 17.46 39.753 17.1771C39.9146 16.8941 40.0359 16.5304 40.1167 16.0858C40.1571 15.8837 40.1975 15.6816 40.238 15.4391L40.2784 15.1158L40.3188 14.9137V14.7924C40.3592 14.3883 40.3592 13.9437 40.3188 13.5395C40.3188 13.3374 40.2784 13.1353 40.238 12.9333C40.238 12.8524 40.1975 12.7716 40.1975 12.6908C40.1975 12.6503 40.1571 12.5695 40.1975 12.6503L40.238 12.6908C40.238 12.6908 40.2784 12.7716 40.3188 12.812C40.3592 12.8524 40.3592 12.8524 40.3996 12.8928C40.44 12.9333 40.5209 13.0141 40.6017 13.0545C40.6825 13.0949 40.7634 13.1353 40.8442 13.1758C40.925 13.2162 41.1676 13.297 41.3292 13.2566C41.7334 13.2162 41.9355 13.1353 42.1376 12.9737C42.2588 12.8928 42.2992 12.812 42.3397 12.7716C42.3801 12.7312 42.3801 12.6908 42.4205 12.6503C42.4609 12.6099 42.4609 12.5695 42.5013 12.5291L42.5417 12.4887C42.5417 12.4482 42.5822 12.4483 42.5822 12.4078C42.5822 12.3674 42.5822 12.3674 42.5822 12.3674C42.5822 12.3674 42.5822 12.4078 42.5822 12.4482C42.5417 12.6099 42.5417 12.812 42.5417 13.0141V13.297V13.6608C42.5417 13.7416 42.5417 13.7416 42.5417 13.782V13.8629C42.5417 13.9033 42.5417 13.9841 42.5822 14.0649C42.663 14.3883 42.7842 14.6712 42.9459 14.9541C43.3097 15.52 43.8351 16.0454 44.4818 16.4091C44.8051 16.5708 45.1284 16.7325 45.4518 16.8537C45.5326 16.8941 45.6134 16.8941 45.6943 16.9346L45.8155 16.975C45.7751 16.975 45.9368 16.975 45.7347 16.975H45.7751H45.8559C46.058 17.0154 46.3005 17.0558 46.4622 17.0558C47.1897 17.1366 47.9172 17.0962 48.5639 17.0154C49.8977 16.7729 50.8677 16.0858 51.2314 15.0754C51.3123 14.8329 51.3931 14.5499 51.3931 14.3074L51.4335 14.1054V14.0649C51.4335 14.0649 51.4335 14.1054 51.4335 14.0649V14.0245V13.9033C51.4335 13.7416 51.4335 13.6203 51.4335 13.4991C51.4335 13.2566 51.3931 13.0141 51.3931 12.812C51.3527 12.6099 51.3123 12.3674 51.2314 12.1653C50.9889 11.357 50.5848 10.7911 50.2614 10.4274C50.0998 10.2657 49.9381 10.1445 49.8573 10.0636C49.7764 9.9828 49.6956 9.94238 49.6956 9.94238C49.6956 9.94238 49.736 9.9828 49.8573 10.0232C49.9785 10.1041 50.1402 10.1445 50.3423 10.3061C50.7464 10.5891 51.3527 11.0741 51.7973 11.9228C51.9185 12.1249 51.9994 12.3674 52.1206 12.6099C52.2015 12.8524 52.2823 13.1758 52.3227 13.4587C52.3631 13.5799 52.3631 13.7416 52.4035 13.8629V13.9841V14.0245V14.0649V14.1054C52.4035 14.1862 52.4035 14.267 52.4035 14.3479C52.444 14.6712 52.3631 15.035 52.3227 15.3583C52.2015 16.0858 51.7973 16.8537 51.191 17.46C50.5848 18.0662 49.7764 18.4704 48.9681 18.7129C48.1193 18.9554 47.2705 19.1171 46.3005 19.1171C46.058 19.1171 45.8559 19.1171 45.6539 19.1171H45.573H45.5326H45.4114L45.2093 19.0767C45.088 19.0363 44.9668 19.0363 44.8455 18.9958C44.3605 18.8746 43.8755 18.7129 43.3905 18.5108C42.4609 18.0662 41.5313 17.3791 40.8442 16.4496C40.4805 15.9645 40.1975 15.4391 40.0359 14.8329C39.955 14.5499 39.8742 14.1458 39.8338 13.8224L39.7934 13.4587V13.0141C39.7934 12.7312 39.7934 12.4887 39.8338 12.1653C39.8338 12.0845 39.8338 12.0037 39.8742 11.8824C39.8742 11.8016 39.9146 11.6803 39.955 11.4782C39.955 11.4378 39.9955 11.357 40.0359 11.3166L40.0763 11.2357C40.1167 11.1953 40.1167 11.1145 40.1571 11.0741C40.1975 11.0336 40.238 10.9932 40.2784 10.9124C40.3188 10.872 40.3592 10.7911 40.4805 10.7103C40.723 10.5486 40.925 10.4274 41.3696 10.387C41.5717 10.387 41.8142 10.4274 41.8951 10.4678C41.9759 10.5082 42.0971 10.5486 42.178 10.6295C42.2588 10.6699 42.3801 10.7911 42.4205 10.7911C42.4609 10.8316 42.5013 10.872 42.5013 10.9124C42.5417 10.9528 42.5417 10.9932 42.5822 11.0336C42.6226 11.0741 42.6226 11.1145 42.6226 11.1145L42.7034 11.2357C42.8651 11.5591 42.9055 11.6803 42.9459 11.8824C42.9863 12.0441 43.0267 12.2057 43.0672 12.3674C43.148 12.6503 43.1884 12.9333 43.2288 13.2162C43.3097 13.782 43.3097 14.3479 43.3097 14.9541V15.1966V15.3987L43.2692 15.8433C43.2288 16.1262 43.1884 16.4091 43.148 16.6921C43.0267 17.2579 42.8651 17.8642 42.5822 18.5108C42.2992 19.1575 41.8142 19.8042 41.1676 20.2488C40.5613 20.6934 39.8742 20.9763 39.2275 21.1379C38.6213 21.2996 37.8938 21.3805 37.4492 21.3805C36.075 21.4209 34.8625 21.1784 33.6904 20.6125C33.1245 20.3296 32.5587 19.9659 32.0333 19.4808C31.5483 18.9958 31.1037 18.3896 30.8207 17.6621C30.6995 17.2983 30.5782 16.975 30.5782 16.49L30.5378 16.1666V15.9645V15.7625V15.6816V15.6412C30.5378 15.6412 30.5378 15.3987 30.5378 15.4795V15.3987C30.5782 15.035 30.6591 14.7924 30.6995 14.5095C30.7803 14.2266 30.8207 13.9841 30.9016 13.7012C31.0632 13.1758 31.2249 12.6503 31.5887 12.0037C31.6695 11.842 31.7908 11.6803 31.9928 11.4782C32.0333 11.4378 32.1141 11.357 32.1545 11.3166C32.1949 11.2762 32.1949 11.2762 32.2353 11.2357C32.2758 11.1953 32.3162 11.1549 32.3566 11.1549C32.397 11.1145 32.4374 11.1145 32.4779 11.0741C32.5183 11.0336 32.5991 10.9932 32.6799 10.9932C32.7608 10.9528 32.8012 10.9528 32.882 10.9124C32.9629 10.9124 33.0437 10.872 33.1245 10.872C33.2862 10.872 33.4883 10.872 33.65 10.9124C33.7308 10.9124 33.8116 10.9528 33.8925 10.9932C33.9733 11.0336 34.0137 11.0336 34.0945 11.0741C34.2158 11.1549 34.337 11.2357 34.4179 11.2762C34.4987 11.357 34.5795 11.3974 34.62 11.4782C34.8221 11.7207 34.9433 11.9228 35.0241 12.0845C35.0646 12.1653 35.105 12.2866 35.1454 12.3674L35.2262 12.5291C35.3071 12.7312 35.3475 12.9333 35.3879 13.1353C35.4687 13.5799 35.4283 13.9841 35.3475 14.3479C35.1858 15.1158 34.8221 15.6412 34.4583 16.0858C33.7308 16.975 32.9224 17.5812 32.1141 18.1067C31.3058 18.6321 30.4974 19.0767 29.6891 19.4C29.487 19.4808 29.2849 19.5617 29.0424 19.6425L28.8807 19.6829L28.6786 19.7233L28.517 19.7638C28.4361 19.8042 28.3957 19.8042 28.3149 19.8042C27.8703 19.885 27.4257 19.9254 27.0215 19.9659C26.1728 20.0063 25.324 19.9254 24.5157 19.6425C24.1115 19.4808 23.7477 19.2788 23.4244 18.9554C23.2627 18.7938 23.1415 18.6321 23.0202 18.43C22.9394 18.2279 22.8181 18.0662 22.7777 17.8642C22.7777 17.7833 22.7373 17.5812 22.7373 17.3791C22.7373 17.2983 22.7373 17.1771 22.7373 17.0962C22.7373 17.0154 22.7373 16.9346 22.7373 16.8537L22.7777 16.6516V16.49L22.8181 16.3687C22.8586 16.2071 22.899 16.0858 22.899 15.9241C22.9394 15.6412 23.0606 15.3987 23.1415 15.1158C23.2627 14.8733 23.3436 14.6308 23.4648 14.4287C23.9094 13.5799 24.4348 13.0949 24.7582 12.7312C25.0815 12.4078 25.2432 12.2057 25.2432 12.2057Z" fill="#EB9F33"/>
<g opacity="0.5">
<g opacity="0.5">
<g opacity="0.5">
<path opacity="0.5" d="M5.56008 32.6977C7.29802 32.5361 8.47012 33.304 9.56139 34.5973C9.92514 35.0015 10.5314 34.3953 10.1676 33.9911C8.91471 32.5765 7.50011 31.6873 5.56008 31.849C5.03466 31.8894 5.03466 32.7382 5.56008 32.6977Z" fill="#4A3B32"/>
</g>
</g>
<g opacity="0.5">
<g opacity="0.5">
<path opacity="0.5" d="M8.30787 32.8183C7.45911 33.3033 6.61035 33.8287 5.76158 34.3542C5.27658 34.6371 5.72117 35.3646 6.20617 35.0817C7.05494 34.5562 7.86328 34.0308 8.75246 33.5458C9.19705 33.3033 8.79288 32.5354 8.30787 32.8183Z" fill="#4A3B32"/>
</g>
</g>
</g>
<g opacity="0.5">
<g opacity="0.5">
<g opacity="0.5">
<path opacity="0.5" d="M67.9234 28.0495C69.2976 27.0391 70.1868 25.7053 72.0056 25.5437C72.531 25.5032 72.5714 24.6141 72.0056 24.6949C71.1568 24.7757 70.3485 24.9778 69.6209 25.5032C68.853 26.0691 68.2468 26.7966 67.4788 27.322C67.0342 27.6453 67.4788 28.3729 67.9234 28.0495Z" fill="#4A3B32"/>
</g>
</g>
<g opacity="0.5">
<g opacity="0.5">
<path opacity="0.5" d="M69.0959 27.2413C69.7021 27.3626 70.4701 27.4838 70.9551 27.888C71.3997 28.2114 72.0059 27.6455 71.5613 27.2818C70.9147 26.7967 70.1063 26.5542 69.298 26.3926C68.7725 26.3522 68.53 27.1605 69.0959 27.2413Z" fill="#4A3B32"/>
</g>
</g>
</g>
<path fill-rule="evenodd" clip-rule="evenodd" d="M76.2894 23.685C76.2086 22.8363 75.8044 21.9471 75.279 21.26C74.309 19.9262 72.8135 19.4008 71.1564 19.4817C69.8227 19.5221 69.4185 19.6433 67.9231 19.805C67.8826 19.6837 66.8722 15.4399 66.7914 15.157C66.6701 14.7933 66.3872 14.2678 66.3064 13.9445C65.2151 10.024 63.9218 6.91191 61.0117 4.72938C59.2738 3.43603 57.4954 2.46601 55.4341 1.94059C53.292 1.37475 51.1095 0.970576 48.8866 0.525986C45.4107 -0.201524 41.854 0.00056255 38.2568 0.162231C33.6493 0.3239 29.1225 1.45558 24.6766 2.99144C22.5345 3.71895 20.3116 4.56771 18.3716 5.78022C14.3298 8.32651 11.2177 11.8024 9.72228 16.5312C9.43936 17.38 9.23727 18.2287 9.03519 19.1179C8.79268 20.1688 8.95435 25.5038 8.71185 26.5547C7.90351 26.5951 8.75227 26.5143 8.14601 26.5547C4.79138 26.9588 2.16426 28.5351 0.709242 32.011C-0.382023 34.7189 0.0625665 37.1844 2.20468 38.6394C3.70012 39.6903 5.47847 40.1753 7.4185 39.8923C8.46935 39.7307 8.10559 39.6498 9.35853 39.4478C10.2073 42.0345 11.824 43.9745 13.6428 45.7528C15.7444 47.8141 17.7653 49.9967 20.6753 50.9263C23.4237 51.8154 26.2125 52.3813 29.163 52.3409C32.6388 52.3004 36.1551 52.1388 39.6714 51.9771C45.0469 51.6942 50.3416 50.6433 55.5554 48.7841C57.6571 48.0566 59.7184 47.0866 61.4563 45.5508C64.1643 43.1661 66.0639 40.2157 67.3572 36.8611C67.9231 35.406 68.2868 33.9106 68.691 32.5768C70.146 32.1322 70.631 32.011 71.9244 31.3643C74.9152 29.9497 76.6128 26.9588 76.2894 23.685ZM74.5919 27.2418C73.3794 29.4647 71.116 30.9601 68.8931 30.4347C68.0847 30.1518 66.9531 31.2027 66.751 32.2131C66.5085 33.7489 66.3064 35.2848 65.7001 36.8206C63.6388 41.9536 60.2034 45.5912 55.0704 47.5312C50.0991 49.3904 45.0469 50.1583 39.9139 50.6433C35.9935 51.0071 32.073 51.0475 28.1525 50.8858C25.2021 50.7646 22.4133 50.1583 19.7862 49.0266C18.3716 48.4204 17.2399 47.127 16.0678 46.0358C14.734 44.7828 13.4811 43.4086 12.2281 42.0345C11.3794 41.1049 10.8135 39.9328 10.5306 38.7203C10.3285 37.9927 10.9348 37.3461 9.96478 37.7907C7.33766 38.5182 4.99347 38.3565 2.89177 36.9823C2.16426 36.3761 1.76009 35.406 1.84092 34.3148C2.00259 32.1727 2.85135 30.3135 4.87221 29.2626C6.44849 28.4139 7.661 28.2118 8.42893 28.333C9.07561 28.4947 9.52019 28.5351 10.0456 28.3734C10.4498 28.2118 10.4498 27.848 10.4902 27.3226C10.6115 26.1101 10.4094 20.6538 10.6115 19.4817C10.7731 18.5116 11.056 17.5416 11.339 16.5716C11.9048 14.7528 12.7132 13.0553 14.1682 11.6811C15.4615 10.4686 16.5932 9.05402 18.0078 7.92234C20.4328 5.98231 23.3429 4.93146 26.1721 4.0827C29.4863 3.11269 32.8005 2.4256 36.1551 1.81934C37.8527 1.496 39.631 1.496 41.369 1.53642C43.6727 1.57683 45.9765 1.77892 48.7653 1.98101C51.1903 2.62768 53.9791 3.39561 56.7679 4.12312C59.2334 4.81021 60.9309 6.46732 62.3859 8.48818C64.043 10.8324 65.6193 17.6629 66.4276 20.4921C66.7914 21.8663 66.751 22.1088 67.6401 21.7854C69.7014 20.7346 72.8944 21.1388 74.3494 22.6342C75.1982 23.6042 75.3598 25.8676 74.5919 27.2418Z" fill="#4A3B32"/>
<path d="M26.7383 54.4822C27.5062 54.4822 27.5062 53.3101 26.7383 53.3101C25.9704 53.2697 25.9704 54.4822 26.7383 54.4822Z" fill="white"/>
<path d="M31.1843 54.8056C31.9523 54.8056 31.9523 53.6335 31.1843 53.6335C30.4164 53.6335 30.4164 54.8056 31.1843 54.8056Z" fill="white"/>
<path d="M35.9138 54.4416C36.6818 54.4416 36.6818 53.2695 35.9138 53.2695C35.1459 53.2291 35.1459 54.4416 35.9138 54.4416Z" fill="white"/>
<path d="M43.5923 53.5527C44.3602 53.5527 44.3602 52.3806 43.5923 52.3806C42.8244 52.3806 42.8244 53.5527 43.5923 53.5527Z" fill="white"/>
<path d="M48.4426 52.906C49.2106 52.906 49.2106 51.7339 48.4426 51.7339C47.6747 51.7339 47.6747 52.906 48.4426 52.906Z" fill="white"/>
<path d="M53.0906 51.5722C53.8585 51.5722 53.8585 50.4001 53.0906 50.4001C52.3227 50.4001 52.3227 51.5722 53.0906 51.5722Z" fill="white"/>
<path d="M28.6785 56.4624C29.4464 56.4624 29.4464 55.2903 28.6785 55.2903C27.9106 55.2499 27.9106 56.4624 28.6785 56.4624Z" fill="white"/>
<path d="M33.6902 56.5027C34.4581 56.5027 34.4581 55.3306 33.6902 55.3306C32.9223 55.3306 32.9223 56.5027 33.6902 56.5027Z" fill="white"/>
<path d="M37.8538 56.4221C38.6217 56.4221 38.6217 55.25 37.8538 55.25C37.0859 55.2096 37.0859 56.4221 37.8538 56.4221Z" fill="white"/>
<path d="M46.3001 54.8865C47.068 54.8865 47.068 53.7144 46.3001 53.7144C45.5321 53.7144 45.5321 54.8865 46.3001 54.8865Z" fill="white"/>
<path d="M51.1504 54.3608C51.9183 54.3608 51.9183 53.1887 51.1504 53.1887C50.3825 53.1887 50.3825 54.3608 51.1504 54.3608Z" fill="white"/>
<path d="M49.2507 57.0283C50.0187 57.0283 50.0187 55.8562 49.2507 55.8562C48.4828 55.8562 48.4828 57.0283 49.2507 57.0283Z" fill="white"/>
<path d="M53.6968 55.9375C54.4647 55.9375 54.4647 54.7654 53.6968 54.7654C52.9289 54.7654 52.9289 55.9375 53.6968 55.9375Z" fill="white"/>
<path d="M44.4812 57.0688C45.2491 57.0688 45.2491 55.8967 44.4812 55.8967C43.7133 55.8563 43.7133 57.0688 44.4812 57.0688Z" fill="white"/>
<path d="M35.6707 58.8472C36.4386 58.8472 36.4386 57.675 35.6707 57.675C34.9027 57.675 34.9027 58.8472 35.6707 58.8472Z" fill="white"/>
<path d="M31.2651 59.0903C32.033 59.0903 32.033 57.9182 31.2651 57.9182C30.5376 57.9182 30.5376 59.0903 31.2651 59.0903Z" fill="white"/>
<path d="M26.6577 57.918C27.4257 57.918 27.4257 56.7458 26.6577 56.7458C25.8898 56.7458 25.8898 57.918 26.6577 57.918Z" fill="white"/>
<path d="M39.106 54.1589C39.8739 54.1589 39.8739 52.9868 39.106 52.9868C38.338 52.9868 38.338 54.1589 39.106 54.1589Z" fill="white"/>
<path d="M55.5965 52.9465C56.3644 52.9465 56.3644 51.7744 55.5965 51.7744C54.8285 51.7744 54.8285 52.9465 55.5965 52.9465Z" fill="white"/>
</g>
<defs>
<clipPath id="clip0">
<rect width="76.1864" height="62" fill="white" transform="translate(0.144043)"/>
</clipPath>
</defs>
</svg>
