<svg width="74" height="74" viewBox="0 0 74 74" fill="none" xmlns="http://www.w3.org/2000/svg">
<circle opacity="0.2" cx="37" cy="37" r="37" fill="#71CCF2"/>
<path fill-rule="evenodd" clip-rule="evenodd" d="M15.0475 32.3116C15.4548 32.3486 15.8621 32.3116 16.2693 32.3116C17.1208 32.3116 17.9354 32.3857 18.7869 32.3486C19.6384 32.3116 20.49 32.0525 21.3415 31.9414C22.2301 31.7933 23.1186 31.7192 24.0072 31.6082C24.7847 31.5341 25.5622 31.4601 26.3027 31.349C27.0801 31.2379 27.8576 31.1269 28.6351 31.0528C30.1901 30.9047 31.7821 30.8307 33.3371 30.6085C34.0776 30.4975 34.8551 30.3494 35.5955 30.2383C36.336 30.1272 37.1135 30.0532 37.891 29.9421C39.446 29.757 41.0009 29.4978 42.5189 29.2387C43.2964 29.1276 44.0739 28.9795 44.8514 28.9055C45.6289 28.8314 46.4064 28.8314 47.1839 28.7944C48.7388 28.7204 50.2568 28.4612 51.8118 28.3501C54.6626 28.128 57.5134 27.8318 60.3642 27.7207C60.3642 27.3135 60.4012 26.9062 60.4012 26.4989C60.4012 23.9073 58.7352 22.4634 56.3286 22.4634C52.9595 22.4634 49.5534 22.4264 46.1842 22.7226C42.1116 23.1298 38.1131 23.8703 34.0776 24.4997C33.152 24.6478 32.2264 24.7959 31.2638 24.8699C28.8202 25.0921 26.3767 25.2772 23.9702 25.4993C22.4892 25.6474 20.9713 25.6844 19.4903 25.9806C15.1586 26.7581 14.0479 27.5726 14.3071 31.4601C14.3441 31.7563 14.3441 32.0154 14.3811 32.3116C14.6033 32.3116 14.8254 32.3116 15.0475 32.3116Z" fill="#71CCF2"/>
<path fill-rule="evenodd" clip-rule="evenodd" d="M55.7734 28.0539C54.0333 28.202 52.2562 28.3131 50.5161 28.4982C49.7386 28.5722 48.9611 28.6833 48.2207 28.7574C47.4432 28.8314 46.6657 28.8684 45.8882 28.9055C44.3332 28.9795 42.7782 29.2757 41.2603 29.4978C40.4828 29.6089 39.7053 29.757 38.9278 29.831C38.1503 29.9421 37.3728 29.9791 36.6323 30.0902C35.1144 30.2753 33.5964 30.6456 32.0785 30.7936C30.5235 30.9417 28.9315 31.0158 27.3765 31.2379C25.8585 31.4601 24.3035 31.6082 22.7486 31.7933C21.9711 31.8673 21.1936 31.9784 20.4531 32.1265C19.7126 32.2746 19.0462 32.4227 18.3058 32.3857C17.5653 32.3857 16.8618 32.3116 16.1214 32.3486C15.7882 32.3486 15.492 32.3486 15.1588 32.3486C14.9366 32.3486 14.6775 32.3116 14.4553 32.3486C14.6404 34.7552 15.0477 37.1617 15.603 39.4941C16.1214 41.7896 17.7134 42.7522 20.1199 42.6411C20.4531 42.6411 20.7493 42.5671 21.0825 42.5671C24.3035 42.493 26.7101 43.7518 28.154 46.7137C28.5242 47.4542 28.8945 48.1946 29.2277 48.9351C30.0422 50.7122 31.4491 51.86 33.3373 52.3042C34.5961 52.6004 35.9289 52.4894 37.2247 52.6004C39.8164 52.1191 42.371 51.7119 44.8886 51.1195C46.7768 50.6752 47.8504 49.2313 48.4798 47.5282C48.813 46.6397 48.8501 45.6771 48.9982 44.7515C49.1092 44.048 49.1833 43.3816 49.2573 42.6782C49.4054 41.4194 50.1459 40.6048 51.2566 40.1235C51.96 39.8274 52.6635 39.5682 53.4039 39.3831C54.5517 39.1239 55.7734 38.9758 56.9212 38.6796C58.1429 38.3834 59.2907 37.754 59.4758 36.4212C59.846 33.5334 60.2533 30.6085 60.3643 27.7207C58.8094 27.7947 57.2914 27.9428 55.7734 28.0539Z" fill="#1FA7E0"/>
<path fill-rule="evenodd" clip-rule="evenodd" d="M39.9637 22.0188C45.5172 21.4634 51.0337 20.871 56.5872 20.6489C60.3266 20.4638 60.4006 21.2042 61.7705 25.1287C61.9186 25.61 62.0297 26.1284 61.9926 26.6097C61.8075 29.8307 61.5854 33.0147 61.3262 36.2357C61.2152 37.7537 60.2525 38.8274 58.8457 39.3087C57.1796 39.9011 55.5135 40.4194 53.8105 40.8637C51.3669 41.4931 51.2188 41.6412 50.9597 44.1217C50.9226 44.4179 50.8856 44.7511 50.8856 45.0473C50.8856 48.1573 49.0715 50.1936 46.739 51.8966C46.1837 52.3039 45.5172 52.6371 44.8508 52.7482C41.3336 53.4516 37.7793 54.118 34.151 54.1921C32.0407 54.2291 30.3006 53.5257 29.1159 51.7486C28.3384 50.5268 27.5979 49.305 26.8945 48.0462C25.6727 45.8248 24.1177 44.1217 21.2669 44.3809C20.3413 44.4549 19.3787 44.3439 18.4531 44.1958C16.8981 43.9366 15.5283 43.2702 14.8248 41.7522C14.1584 40.3453 13.492 38.8644 13.1588 37.3464C12.5664 34.6437 12.0481 31.867 12.5294 29.0902C12.9366 26.6097 15.084 24.6474 17.5646 24.3883C20.1562 24.1291 22.7108 23.9069 25.3025 23.6478L39.9637 22.0188ZM37.224 52.5631C39.8156 52.0818 42.3702 51.6745 44.8878 51.0821C46.776 50.6379 47.8497 49.1939 48.4791 47.4909C48.8123 46.6023 48.8493 45.6397 48.9974 44.7141C49.1085 44.0107 49.1826 43.3442 49.2566 42.6408C49.4047 41.382 50.1452 40.5675 51.2559 40.0862C51.9593 39.79 52.6628 39.5308 53.4032 39.3457C54.5509 39.0865 55.7727 38.9385 56.9204 38.6423C58.1422 38.3461 59.2899 37.7167 59.4751 36.3838C59.8823 33.0888 60.3636 29.7566 60.3636 26.4245C60.3636 23.8329 58.6976 22.389 56.291 22.389C52.9219 22.389 49.5158 22.352 46.1466 22.6482C42.0741 23.0554 38.0755 23.7959 34.04 24.4253C33.1144 24.5734 32.1888 24.7215 31.2262 24.7955C28.7827 25.0177 26.3391 25.2028 23.9326 25.4249C22.4517 25.573 20.9337 25.61 19.4528 25.9062C15.158 26.7578 14.0473 27.5723 14.3065 31.4597C14.5286 34.1624 15.0099 36.8651 15.6023 39.4938C16.1206 41.7893 17.7127 42.7519 20.1192 42.6408C20.4524 42.6408 20.7486 42.5667 21.0818 42.5667C24.3028 42.4927 26.7093 43.7515 28.1533 46.7134C28.5235 47.4538 28.8937 48.1943 29.2269 48.9348C30.0415 50.7119 31.4483 51.8596 33.3365 52.3039C34.5583 52.6001 35.9282 52.489 37.224 52.5631Z" fill="#4A3B32"/>
<path d="M13.8253 32.9784C21.8594 32.2379 29.8934 31.3494 37.8905 30.3127C41.5558 29.8314 45.2211 29.2761 48.9235 28.9428C52.959 28.5726 57.0686 28.4986 61.1042 28.1283C61.6965 28.0913 61.6965 27.1657 61.1042 27.2027C57.2908 27.536 53.4403 27.647 49.6269 27.9432C45.7024 28.2764 41.815 28.8688 37.8905 29.3871C29.8934 30.4608 21.8594 31.3123 13.8253 32.0528C13.2699 32.0898 13.2329 33.0154 13.8253 32.9784Z" fill="#4A3B32"/>
<path d="M29.8941 31.2385C30.3754 33.7191 31.0418 36.1626 30.9307 38.6802C30.7086 42.5677 26.1917 43.0119 23.1928 43.3081C22.6004 43.3452 22.6004 44.2707 23.1928 44.2337C26.1547 43.9746 29.857 43.6413 31.375 40.6424C32.7819 37.8287 31.338 33.8672 30.7826 31.0164C30.6715 30.424 29.783 30.6832 29.8941 31.2385Z" fill="#4A3B32"/>
<path d="M42.9627 29.6456C43.481 32.6075 42.7406 35.9396 44.1475 38.7164C45.7024 41.8263 49.3678 41.1229 52.2926 40.8267C52.885 40.7527 52.885 39.8641 52.2926 39.9011C50.8857 40.0492 49.4788 40.1973 48.0719 40.1233C46.1097 40.0492 45.1101 39.0126 44.5917 37.1984C43.8513 34.6438 44.3326 31.9411 43.8513 29.3865C43.7402 28.8311 42.8516 29.0903 42.9627 29.6456Z" fill="#4A3B32"/>
<path d="M28.2648 38.0873C29.6347 37.7541 31.0416 37.7911 32.4114 37.3838C33.5962 37.0506 34.3366 35.7918 34.0034 34.57C33.6702 33.3853 32.3744 32.6448 31.1897 32.978C29.8568 33.3853 28.4499 33.3483 27.043 33.6815C25.8213 33.9777 25.1178 35.3105 25.451 36.4953C25.7842 37.717 27.043 38.3464 28.2648 38.0873Z" fill="white"/>
<path d="M42.4446 36.3099C43.9256 36.1618 45.3695 36.1248 46.8504 35.9767C48.0722 35.8656 49.1459 35.0141 49.1459 33.6812C49.1459 32.5335 48.1092 31.2747 46.8504 31.3858C45.3695 31.5339 43.9256 31.5709 42.4446 31.719C41.2229 31.83 40.1492 32.6816 40.1492 34.0144C40.1862 35.1992 41.2229 36.4209 42.4446 36.3099Z" fill="white"/>
<path d="M22.6371 28.3875C23.3776 28.3875 23.3776 27.2397 22.6371 27.2397C21.8967 27.2768 21.8967 28.3875 22.6371 28.3875Z" fill="white"/>
<path d="M15.9726 30.5354C16.7131 30.5354 16.7131 29.3877 15.9726 29.3877C15.2321 29.4247 15.2321 30.5354 15.9726 30.5354Z" fill="white"/>
<path d="M30.4123 29.2761C31.1528 29.2761 31.1528 28.1284 30.4123 28.1284C29.7089 28.1284 29.7089 29.2761 30.4123 29.2761Z" fill="white"/>
<path d="M39.6306 25.3513C40.3711 25.3513 40.3711 24.2036 39.6306 24.2036C38.9272 24.2406 38.9272 25.3513 39.6306 25.3513Z" fill="white"/>
<path d="M46.9247 27.7947C47.6652 27.7947 47.6652 26.647 46.9247 26.647C46.1843 26.647 46.1843 27.7947 46.9247 27.7947Z" fill="white"/>
<path d="M56.3657 24.0183C57.1061 24.0183 57.1061 22.8706 56.3657 22.8706C55.6252 22.8706 55.6252 24.0183 56.3657 24.0183Z" fill="white"/>
<path d="M18.268 27.9431C19.0085 27.9431 19.0085 26.7954 18.268 26.7954C17.5275 26.7954 17.5275 27.9431 18.268 27.9431Z" fill="white"/>
<path d="M20.1938 30.7571C20.9342 30.7571 20.9342 29.6094 20.1938 29.6094C19.4533 29.6094 19.4533 30.7571 20.1938 30.7571Z" fill="white"/>
<path d="M27.7096 26.8328C28.4501 26.8328 28.4501 25.6851 27.7096 25.6851C26.9692 25.6851 26.9692 26.8328 27.7096 26.8328Z" fill="white"/>
<path d="M26.1916 29.8689C26.9321 29.8689 26.9321 28.7212 26.1916 28.7212C25.4882 28.7212 25.4882 29.8689 26.1916 29.8689Z" fill="white"/>
<path d="M34.3737 26.0178C35.1142 26.0178 35.1142 24.8701 34.3737 24.8701C33.6332 24.8701 33.6332 26.0178 34.3737 26.0178Z" fill="white"/>
<path d="M36.8176 28.9055C37.558 28.9055 37.558 27.7578 36.8176 27.7578C36.0771 27.7578 36.0771 28.9055 36.8176 28.9055Z" fill="white"/>
<path d="M42.3337 27.3884C43.0741 27.3884 43.0741 26.2407 42.3337 26.2407C41.5932 26.2407 41.5932 27.3884 42.3337 27.3884Z" fill="white"/>
<path d="M46.5171 24.6853C47.2576 24.6853 47.2576 23.5376 46.5171 23.5376C45.8136 23.5376 45.8136 24.6853 46.5171 24.6853Z" fill="white"/>
<path d="M51.0712 24.7219C51.8117 24.7219 51.8117 23.5742 51.0712 23.5742C50.3308 23.5742 50.3308 24.7219 51.0712 24.7219Z" fill="white"/>
<path d="M53.5153 27.0921C54.2558 27.0921 54.2558 25.9443 53.5153 25.9443C52.7748 25.9443 52.7748 27.0921 53.5153 27.0921Z" fill="white"/>
<path d="M58.1794 26.7591C58.9198 26.7591 58.9198 25.6113 58.1794 25.6113C57.4389 25.6113 57.4389 26.7591 58.1794 26.7591Z" fill="white"/>
</svg>
