<svg width="24" height="30" viewBox="0 0 24 30" fill="none" xmlns="http://www.w3.org/2000/svg">
<path d="M2.49996 26.0833C2.49996 27.825 3.92496 29.25 5.66663 29.25H18.3333C20.075 29.25 21.5 27.825 21.5 26.0833V10.25C21.5 8.50833 20.075 7.08333 18.3333 7.08333H5.66663C3.92496 7.08333 2.49996 8.50833 2.49996 10.25V26.0833ZM21.5 2.33333H17.5416L16.4175 1.20917C16.1325 0.924167 15.7208 0.75 15.3091 0.75H8.69079C8.27913 0.75 7.86746 0.924167 7.58246 1.20917L6.45829 2.33333H2.49996C1.62913 2.33333 0.916626 3.04583 0.916626 3.91667C0.916626 4.7875 1.62913 5.5 2.49996 5.5H21.5C22.3708 5.5 23.0833 4.7875 23.0833 3.91667C23.0833 3.04583 22.3708 2.33333 21.5 2.33333Z" fill="#154681"/>
</svg>
