<svg width="36" height="36" viewBox="0 0 36 36" fill="none" xmlns="http://www.w3.org/2000/svg">
<circle r="18" transform="matrix(-1 0 0 1 18 18)" fill="#FFEDEF"/>
<mask id="mask0" mask-type="alpha" maskUnits="userSpaceOnUse" x="0" y="0" width="36" height="36">
<circle r="18" transform="matrix(-1 0 0 1 18 18)" fill="#FFEDEF"/>
</mask>
<g mask="url(#mask0)">
<g clip-path="url(#clip0)">
<path d="M12.885 34.3405C14.2492 32.4458 15.3165 28.7826 15.4429 26.951L21.9323 24.1562L24.6323 34.3405H12.885Z" fill="#F9C9B6" stroke="black" stroke-width="0.378947"/>
<mask id="mask1" mask-type="alpha" maskUnits="userSpaceOnUse" x="-100" y="24" width="125" height="118">
<path d="M-99.3677 141.657C-84.9677 121.657 -73.701 72.99 -72.3677 53.6566L-3.86768 24.1562L24.6323 141.657H-99.3677Z" fill="#AC6651"/>
</mask>
<g mask="url(#mask1)">
</g>
<mask id="path-5-inside-1" fill="white">
<path fill-rule="evenodd" clip-rule="evenodd" d="M10.0425 18.4125C10.0482 18.3874 10.0541 18.3623 10.0601 18.3372C10.0661 18.3121 10.0723 18.2871 10.0785 18.2621L11.6067 11.8837C11.613 11.8562 11.6194 11.8286 11.626 11.8011C12.5735 7.84646 16.5475 5.4087 20.5021 6.35619C24.4407 7.29985 26.8747 11.2455 25.9584 15.1842L25.959 15.1843L24.3493 21.9029L24.3477 21.9025C23.3434 25.778 19.4148 28.1501 15.505 27.2133C11.5953 26.2766 9.16815 22.3817 10.0292 18.4719L10.0283 18.4717L10.0425 18.4125Z"/>
</mask>
<path fill-rule="evenodd" clip-rule="evenodd" d="M10.0425 18.4125C10.0482 18.3874 10.0541 18.3623 10.0601 18.3372C10.0661 18.3121 10.0723 18.2871 10.0785 18.2621L11.6067 11.8837C11.613 11.8562 11.6194 11.8286 11.626 11.8011C12.5735 7.84646 16.5475 5.4087 20.5021 6.35619C24.4407 7.29985 26.8747 11.2455 25.9584 15.1842L25.959 15.1843L24.3493 21.9029L24.3477 21.9025C23.3434 25.778 19.4148 28.1501 15.505 27.2133C11.5953 26.2766 9.16815 22.3817 10.0292 18.4719L10.0283 18.4717L10.0425 18.4125Z" fill="#F9C9B6"/>
<path d="M10.0425 18.4125L10.4119 18.497L10.411 18.5008L10.0425 18.4125ZM10.0601 18.3372L10.4286 18.4255L10.4286 18.4255L10.0601 18.3372ZM10.0785 18.2621L10.4471 18.3504L10.4461 18.3542L10.0785 18.2621ZM11.6067 11.8837L11.9763 11.9678L11.9753 11.972L11.6067 11.8837ZM11.626 11.8011L11.2575 11.7128V11.7128L11.626 11.8011ZM20.5021 6.35619L20.5904 5.98768L20.5021 6.35619ZM25.9584 15.1842L25.8703 15.5527L25.5039 15.4652L25.5893 15.0983L25.9584 15.1842ZM25.959 15.1843L26.0471 14.8158L26.4159 14.9039L26.3275 15.2726L25.959 15.1843ZM24.3493 21.9029L24.7178 21.9912L24.6296 22.3596L24.2611 22.2714L24.3493 21.9029ZM24.3477 21.9025L23.9809 21.8074L24.0742 21.4474L24.4359 21.5339L24.3477 21.9025ZM15.505 27.2133L15.5933 26.8448H15.5933L15.505 27.2133ZM10.0292 18.4719L10.1174 18.1033L10.4793 18.19L10.3992 18.5534L10.0292 18.4719ZM10.0283 18.4717L9.94011 18.8402L9.57148 18.752L9.65979 18.3834L10.0283 18.4717ZM9.67308 18.328C9.67911 18.3017 9.68528 18.2753 9.6916 18.2489L10.4286 18.4255C10.4229 18.4494 10.4173 18.4732 10.4119 18.497L9.67308 18.328ZM9.6916 18.2489C9.69792 18.2226 9.70436 18.1963 9.71093 18.17L10.4461 18.3542C10.4402 18.3779 10.4343 18.4017 10.4286 18.4255L9.6916 18.2489ZM11.9753 11.972L10.447 18.3504L9.71 18.1738L11.2382 11.7954L11.9753 11.972ZM11.2372 11.7996C11.2438 11.7706 11.2506 11.7417 11.2575 11.7128L11.9946 11.8894C11.9883 11.9155 11.9822 11.9417 11.9762 11.9678L11.2372 11.7996ZM11.2575 11.7128C12.2538 7.55464 16.4323 4.99142 20.5904 5.98767L20.4138 6.72471C16.6627 5.82598 12.8933 8.13828 11.9946 11.8894L11.2575 11.7128ZM20.5904 5.98768C24.7317 6.9799 27.291 11.1286 26.3275 15.2701L25.5893 15.0983C26.4585 11.3624 24.1497 7.6198 20.4138 6.72471L20.5904 5.98768ZM25.8709 15.5529L25.8703 15.5527L26.0465 14.8156L26.0471 14.8158L25.8709 15.5529ZM23.9808 21.8146L25.5905 15.096L26.3275 15.2726L24.7178 21.9912L23.9808 21.8146ZM24.4359 21.5339L24.4375 21.5343L24.2611 22.2714L24.2595 22.271L24.4359 21.5339ZM24.7145 21.9975C23.6585 26.0726 19.5277 28.5668 15.4167 27.5818L15.5933 26.8448C19.3018 27.7333 23.0283 25.4833 23.9809 21.8074L24.7145 21.9975ZM15.4167 27.5818C11.3057 26.5969 8.75373 22.5015 9.65908 18.3904L10.3992 18.5534C9.58258 22.2618 11.8848 25.9563 15.5933 26.8448L15.4167 27.5818ZM10.1165 18.1031L10.1174 18.1033L9.94096 18.8404L9.94011 18.8402L10.1165 18.1031ZM10.411 18.5008L10.3968 18.56L9.65979 18.3834L9.67397 18.3242L10.411 18.5008Z" fill="black" mask="url(#path-5-inside-1)"/>
</g>
<path d="M17.9998 21.5199C17.5318 22.1306 16.8225 22.8073 15.7284 22.653C14.6343 22.4987 14.1475 21.7439 14.291 21.1327" stroke="black" stroke-width="0.378947"/>
<path d="M15.2524 12.5252C14.7156 12.2726 13.4524 12.042 12.6945 13.141" stroke="black" stroke-width="0.378947" stroke-linecap="round"/>
<path d="M22.3978 14.9224C22.2016 14.3625 21.4805 13.3001 20.1655 13.5299" stroke="black" stroke-width="0.378947" stroke-linecap="round"/>
<circle r="1.13684" transform="matrix(-0.994007 -0.109312 -0.109312 0.994007 20.1566 15.0853)" fill="#D2EFF3"/>
<ellipse rx="0.852632" ry="1.27895" transform="matrix(-0.993014 -0.117996 -0.117996 0.993014 20.0339 15.9536)" fill="black"/>
<circle r="1.13684" transform="matrix(-0.994007 -0.109312 -0.109312 0.994007 14.1141 14.268)" fill="#D2EFF3"/>
<ellipse rx="0.852632" ry="1.27895" transform="matrix(-0.994007 -0.109312 -0.109312 0.994007 13.9709 15.0067)" fill="black"/>
<path d="M20.3838 11.3509C20.4582 11.1859 20.4583 11.1859 20.4584 11.186L20.4586 11.1861L20.4593 11.1864L20.4617 11.1875L20.4702 11.1914L20.5019 11.2063C20.5293 11.2194 20.569 11.2387 20.6193 11.2642C20.7198 11.3152 20.8627 11.3909 21.0342 11.4907C21.3768 11.69 21.8354 11.9864 22.2983 12.3747C23.2189 13.1468 24.1858 14.3076 24.244 15.8136C24.2691 16.4616 24.3501 19.5917 24.332 20.7879C24.3167 21.7952 23.7955 22.8768 23.0723 23.874C22.4423 24.743 21.6466 25.565 20.858 26.2424C24.4358 26.3839 27.1463 25.9145 28.978 25.4005C29.9332 25.1325 30.6498 24.8523 31.126 24.64C31.3142 24.5561 31.4649 24.4828 31.578 24.4251C30.7164 23.7919 29.9976 22.7063 29.5234 21.0951C29.0033 19.3282 28.7727 16.9152 28.975 13.7329C29.1584 10.8493 27.757 8.41309 25.6395 6.69076C23.5198 4.96665 20.6952 3.9701 18.0722 3.9701C16.6527 3.9701 15.5011 4.24805 14.5727 4.92227C13.6439 5.59673 12.9156 6.6844 12.3761 8.34895L12.3387 8.46447L12.2176 8.47365C11.0451 8.56252 10.2206 9.04583 9.61274 9.82021C8.99831 10.6029 8.59825 11.6922 8.30497 13.0005C8.11173 13.8626 8.2999 14.7132 8.52613 15.6928L8.53668 15.7385C8.75813 16.6969 9.00451 17.7632 8.8961 19.01C8.79853 20.1321 8.35069 21.2334 7.97845 22.0803C7.93063 22.1891 7.8843 22.2931 7.84013 22.3923C7.70991 22.6848 7.59855 22.935 7.52336 23.1393C7.47299 23.2762 7.44388 23.3797 7.43461 23.4532C7.42988 23.4908 7.43155 23.5103 7.43287 23.5184C7.475 23.5573 7.55304 23.6004 7.67771 23.6385C7.80745 23.6782 7.97076 23.7073 8.15854 23.7256C8.53374 23.7623 8.98683 23.7537 9.42207 23.7118C9.85812 23.6699 10.2658 23.5954 10.5515 23.5046C10.6965 23.4585 10.7968 23.4123 10.8533 23.3722C10.862 23.3661 10.8686 23.3609 10.8737 23.3566C10.8384 23.2346 10.7874 23.0892 10.7286 22.9211C10.426 22.0566 9.91437 20.5952 10.2452 18.6703C10.4432 17.5187 10.9715 15.485 11.4478 13.7469C11.6864 12.8761 11.9127 12.0769 12.0793 11.4954C12.1626 11.2046 12.2311 10.9682 12.2787 10.8045L12.3337 10.6156L12.3481 10.5664L12.3518 10.5538L12.3528 10.5506L12.353 10.5498L12.3531 10.5496L12.5268 10.6006L12.3531 10.5495L12.4411 10.2502L12.6572 10.4751L12.6573 10.4751L12.6576 10.4755L12.6595 10.4774L12.6676 10.4857C12.675 10.4932 12.6864 10.5046 12.7015 10.5196C12.7319 10.5496 12.7777 10.594 12.8385 10.6508C12.96 10.7643 13.1413 10.9268 13.3783 11.1212C13.8525 11.5099 14.5489 12.0253 15.4357 12.5292C17.1237 13.4884 19.4952 14.4031 22.3346 14.3323C21.4237 13.4862 20.8997 12.7908 20.5994 12.287C20.432 12.0062 20.3343 11.7851 20.2779 11.6312C20.2498 11.5542 20.232 11.4941 20.221 11.4518C20.2155 11.4306 20.2117 11.4139 20.2092 11.4017L20.2063 11.3869L20.2055 11.3822L20.2052 11.3804L20.2051 11.3797L20.205 11.3794C20.205 11.3793 20.205 11.3791 20.3838 11.3509ZM20.3838 11.3509L20.4582 11.1859L20.1528 11.0481L20.205 11.3791L20.3838 11.3509ZM10.8882 23.3416C10.888 23.3416 10.8869 23.3429 10.8855 23.3454C10.8878 23.3429 10.8885 23.3416 10.8882 23.3416Z" fill="#AC6651" stroke="black" stroke-width="0.362069"/>
<path d="M12.3157 8.43115C12.2683 8.85747 12.3441 9.7101 12.4578 10.2785" stroke="black" stroke-width="0.378947"/>
<path d="M16.7557 16.0183C16.5711 17.3317 15.7694 18.2714 15.7694 18.2714C15.7694 18.2714 16.0186 18.8804 16.9831 18.8246" stroke="#171921" stroke-width="0.378947"/>
<path d="M24.2053 17.0684C24.426 16.9957 24.6643 16.957 24.9083 16.957C25.9024 16.957 26.7082 17.5728 26.6135 18.7097C26.5148 19.8939 25.8076 20.3202 24.8135 20.3202C24.7029 20.3202 24.5946 20.3105 24.4895 20.2919C24.3748 20.2716 24.2639 20.2407 24.1579 20.2003" stroke="black" stroke-width="0.757895"/>
<path d="M24.1106 20.1815C24.3265 20.2708 24.5641 20.3202 24.8135 20.3202C25.8076 20.3202 26.5148 19.8939 26.6135 18.7097C26.7082 17.5728 25.9024 16.957 24.9083 16.957C24.611 16.957 24.3221 17.0145 24.0632 17.1209L24.1106 20.1815Z" fill="#F9C9B6"/>
<path d="M24.4893 17.7624C24.8683 17.5887 25.702 17.4971 26.0051 18.5203" stroke="black" stroke-width="0.378947"/>
<path d="M25.4836 17.8096C25.2784 17.9833 24.8868 18.5201 24.9626 19.278" stroke="black" stroke-width="0.378947"/>
<path d="M5.3653 36.27H31.2199C31.2166 36.2634 31.2133 36.2567 31.21 36.2499C30.7795 35.3731 29.9851 33.7554 28.9513 32.308C28.3645 31.4865 27.7076 30.7302 27.0055 30.1983C26.3033 29.6662 25.5731 29.3711 24.8313 29.436C23.4051 29.5608 22.1348 30.3416 20.8594 31.1256C20.7386 31.1999 20.6177 31.2742 20.4966 31.348C19.1244 32.1842 17.7152 32.9607 16.1654 32.6209C15.6411 32.506 15.2877 32.26 15.0653 31.9422C14.8461 31.6289 14.7673 31.2647 14.7537 30.932C14.7401 30.5987 14.7911 30.2837 14.8442 30.0547C14.869 29.9476 14.8946 29.8578 14.915 29.792C14.5716 29.4464 14.208 29.245 13.8325 29.1544C13.4257 29.0562 12.9906 29.0845 12.533 29.2199C11.6112 29.4926 10.625 30.1912 9.66248 31.0894C7.89901 32.7353 6.28097 34.9873 5.3653 36.27Z" fill="#9287FF" stroke="black" stroke-width="0.404934"/>
</g>
<defs>
<clipPath id="clip0">
<rect width="18.9474" height="30.3158" fill="white" transform="matrix(-1 0 0 1 27.4739 4.07324)"/>
</clipPath>
</defs>
</svg>
