<svg width="19" height="20" viewBox="0 0 19 20" fill="none" xmlns="http://www.w3.org/2000/svg">
<rect width="18.2222" height="18.2222" transform="translate(0.305542 0.82299)" fill="white"/>
<path fill-rule="evenodd" clip-rule="evenodd" d="M17.798 10.1326C17.798 9.51342 17.7424 8.9181 17.6392 8.34658H9.41577V11.7241H14.1149C13.9125 12.8155 13.2973 13.7403 12.3726 14.3594V16.5502H15.1944C16.8455 15.0301 17.798 12.7917 17.798 10.1326Z" fill="#4285F4"/>
<path fill-rule="evenodd" clip-rule="evenodd" d="M9.41605 18.6654C11.7736 18.6654 13.75 17.8835 15.1947 16.55L12.3728 14.3592C11.591 14.8831 10.5908 15.1926 9.41605 15.1926C7.1419 15.1926 5.217 13.6567 4.53039 11.5929H1.61328V13.8551C3.05001 16.7087 6.00284 18.6654 9.41605 18.6654Z" fill="#34A853"/>
<path fill-rule="evenodd" clip-rule="evenodd" d="M4.53027 11.5931C4.35564 11.0692 4.25642 10.5096 4.25642 9.93415C4.25642 9.35866 4.35564 8.79905 4.53027 8.27516V6.01292H1.61316C1.0218 7.19167 0.684448 8.5252 0.684448 9.93415C0.684448 11.3431 1.0218 12.6766 1.61316 13.8554L4.53027 11.5931Z" fill="#FBBC05"/>
<path fill-rule="evenodd" clip-rule="evenodd" d="M9.41605 4.67532C10.698 4.67532 11.849 5.11586 12.7539 5.98107L15.2582 3.47672C13.7461 2.06778 11.7696 1.20257 9.41605 1.20257C6.00284 1.20257 3.05001 3.15921 1.61328 6.01282L4.53039 8.27507C5.217 6.21126 7.1419 4.67532 9.41605 4.67532Z" fill="#EA4335"/>
</svg>
