<svg width="180" height="140" viewBox="0 0 180 140" fill="none" xmlns="http://www.w3.org/2000/svg">
<g filter="url(#filter0_d)">
<rect x="10" y="7" width="160" height="120" rx="16.3718" fill="#FFF0F5"/>
<rect x="10.0236" y="7.02361" width="159.953" height="119.953" rx="16.3482" stroke="#D17150" stroke-width="0.0472264"/>
</g>
<mask id="mask0" mask-type="alpha" maskUnits="userSpaceOnUse" x="10" y="7" width="160" height="120">
<rect x="10.0236" y="7.02361" width="159.953" height="119.953" rx="16.3482" fill="#FFE6ED" stroke="#D17150" stroke-width="0.0472264"/>
</mask>
<g mask="url(#mask0)">
<path d="M73.5053 29.6079H53.4731V26.6883C53.4731 26.2828 53.7976 25.9583 54.2031 25.9583H72.8565C73.262 25.9583 73.5864 26.2828 73.5864 26.6883V29.6079H73.5053Z" fill="#19A1A1"/>
<path d="M74.1537 31.7991H52.8239C52.1751 31.7991 51.6885 31.3125 51.6885 30.6637C51.6885 30.0149 52.1751 29.5283 52.8239 29.5283H74.1537C74.8025 29.5283 75.2892 30.0149 75.2892 30.6637C75.2081 31.3125 74.7214 31.7991 74.1537 31.7991Z" fill="#057774"/>
<path d="M73.5053 34.9607V31.7978H53.4731V34.8796L50.0668 36.9883C48.607 37.8804 47.7148 39.4213 47.7148 41.1245V59.859C47.7148 62.5354 49.9046 64.7252 52.581 64.7252H74.3163C76.9927 64.7252 79.1824 62.5354 79.1824 59.859V41.2056C79.1824 39.5024 78.2903 37.9615 76.8305 37.0694L73.5053 34.9607Z" fill="#CEE0F6"/>
<path d="M72.0455 36.8264H54.933L52.0133 38.6107C50.7968 39.3406 50.0669 40.7193 50.0669 42.1791V58.2373C50.0669 60.5893 51.9322 62.4546 54.2842 62.4546H72.8566C75.2085 62.4546 77.0739 60.5893 77.0739 58.2373V42.2602C77.0739 40.8004 76.3439 39.4217 75.1274 38.6918L72.0455 36.8264Z" fill="#E54920"/>
<path opacity="0.2" d="M79.2636 43.882V41.2056C79.2636 39.5024 78.3715 37.9615 76.9117 37.0694L73.5054 34.9607V31.7978H63.4487V43.882H79.2636Z" fill="#19A1A1"/>
<path opacity="0.2" d="M79.2636 59.9404V56.1286H63.4487V64.8876H74.3164C77.0739 64.8876 79.2636 62.6979 79.2636 59.9404Z" fill="#19A1A1"/>
<path d="M79.2635 56.1286H47.7148V58.3184H79.2635V56.1286Z" fill="#F5B11C"/>
<path d="M79.2635 41.6926H47.7148V43.8824H79.2635V41.6926Z" fill="#F5B11C"/>
<path d="M79.2635 43.8815H47.7148V56.1279H79.2635V43.8815Z" fill="#FCCC77"/>
<path opacity="0.5" d="M73.5054 27.4993C73.5054 26.6072 72.7755 25.9583 71.9644 25.9583H63.4487V29.6079H73.5054V27.4993Z" fill="#057774"/>
<path opacity="0.3" d="M79.1825 43.8815H63.4487V56.1279H79.1825V43.8815Z" fill="#7DB23E"/>
<path d="M55.4194 50.8565H56.7171C57.447 50.8565 58.0958 51.0998 58.0958 51.992C58.0958 52.803 57.447 53.2085 56.7171 53.2085H56.2305V54.425H55.4194V50.8565ZM56.636 52.5597C57.0415 52.5597 57.2848 52.3975 57.2848 51.992C57.2848 51.5865 57.0415 51.5054 56.636 51.5054H56.2305V52.5597H56.636Z" fill="#F15B40"/>
<path d="M58.583 50.8569H59.394V52.8034C59.394 53.4522 59.6373 53.6955 59.9617 53.6955C60.3673 53.6955 60.6106 53.4522 60.6106 52.8034V50.8569H61.3405V52.7223C61.3405 53.8577 60.8539 54.4254 59.9617 54.4254C59.0696 54.4254 58.583 53.9388 58.583 52.7223V50.8569Z" fill="#F15B40"/>
<path d="M64.0978 54.4251L63.449 53.1275H63.0434V54.4251H62.2324V50.9377H63.5301C64.26 50.9377 64.9088 51.181 64.9088 51.9921C64.9088 52.4787 64.6655 52.8031 64.26 52.9653L65.071 54.344H64.0978V54.4251ZM62.9623 52.4787H63.3679C63.7734 52.4787 64.0167 52.3165 64.0167 51.9921C64.0167 51.6677 63.7734 51.5055 63.3679 51.5055H62.9623V52.4787Z" fill="#F15B40"/>
<path d="M65.4761 50.8569H67.6659V51.5057H66.2871V52.2357H67.5037V52.8845H66.2871V53.6955H67.6659V54.3443H65.395V50.8569H65.4761Z" fill="#F15B40"/>
<path d="M68.396 50.8569H70.5857V51.5057H69.207V52.2357H70.4235V52.8845H69.207V53.6955H70.6669V54.3443H68.396V50.8569Z" fill="#F15B40"/>
<path d="M50.1479 45.6662H50.959L51.3645 47.2883C51.4456 47.6938 51.5267 48.0182 51.6078 48.4237C51.6889 48.0182 51.77 47.6938 51.8511 47.2883L52.2566 45.6662H53.0676L52.0133 49.1536H51.0401L50.1479 45.6662Z" fill="#F15B40"/>
<path d="M53.5542 45.6662H55.744V46.315H54.3653V47.045H55.5007V47.6938H54.2842V48.5048H55.744V49.1536H53.4731V45.6662H53.5542Z" fill="#F15B40"/>
<path d="M58.0149 45.5854C58.5015 45.5854 58.8259 45.8287 59.0692 46.072L58.6637 46.5586C58.5015 46.3964 58.3393 46.3153 58.0149 46.3153C57.4472 46.3153 57.1228 46.7208 57.1228 47.4508C57.1228 48.1807 57.4472 48.5862 58.096 48.5862C58.2582 48.5862 58.4204 48.5862 58.5015 48.5051V47.9374H57.9338V47.2886H59.2314V48.9106C58.9881 49.1539 58.5826 49.3161 58.096 49.3161C57.1228 49.3161 56.3929 48.6673 56.3929 47.5319C56.3118 46.2342 57.0417 45.5854 58.0149 45.5854Z" fill="#F15B40"/>
<path d="M59.8804 45.6662H62.0701V46.315H60.6914V47.045H61.9079V47.6938H60.6914V48.5048H62.1512V49.1536H59.8804V45.6662Z" fill="#F15B40"/>
<path d="M63.4488 46.315H62.4756V45.6662H65.2331V46.315H64.2598V49.1536H63.4488V46.315Z" fill="#F15B40"/>
<path d="M67.1795 48.2618H66.1251L65.8818 49.0728H65.0708L66.2062 45.5854H67.1795L68.3149 49.0728H67.5039L67.1795 48.2618ZM67.0172 47.6941L66.9361 47.3697C66.855 47.0453 66.7739 46.6397 66.6928 46.2342C66.6117 46.6397 66.5306 47.0453 66.4495 47.3697L66.3684 47.6941H67.0172Z" fill="#F15B40"/>
<path d="M68.5581 45.6662H69.7746C70.5046 45.6662 71.0723 45.8284 71.0723 46.5584C71.0723 46.8828 70.9101 47.2072 70.5046 47.2883C70.9912 47.3694 71.2345 47.6127 71.2345 48.0993C71.2345 48.8292 70.6668 49.1536 69.8557 49.1536H68.5581V45.6662ZM69.7746 47.045C70.1801 47.045 70.3423 46.8828 70.3423 46.6395C70.3423 46.3961 70.1801 46.2339 69.7746 46.2339H69.3691V47.045H69.7746ZM69.8557 48.5048C70.2612 48.5048 70.5046 48.3426 70.5046 48.0182C70.5046 47.6938 70.2612 47.6127 69.8557 47.6127H69.4502V48.5048H69.8557Z" fill="#F15B40"/>
<path d="M71.8022 45.6662H72.6133V48.5048H73.992V49.1536H71.8022V45.6662Z" fill="#F15B40"/>
<path d="M74.5596 45.6662H76.7493V46.315H75.3706V47.045H76.5871V47.6938H75.3706V48.5048H76.8304V49.1536H74.5596V45.6662Z" fill="#F15B40"/>
<path d="M54.5273 40.7201H34.4951V37.8004C34.4951 37.3949 34.8195 37.0705 35.225 37.0705H53.8785C54.284 37.0705 54.6084 37.3949 54.6084 37.8004V40.7201H54.5273Z" fill="#75D3D8"/>
<path d="M55.0946 42.991H33.8459C33.1971 42.991 32.7104 42.5044 32.7104 41.8556C32.7104 41.2067 33.1971 40.7201 33.8459 40.7201H55.0946C55.7434 40.7201 56.23 41.2067 56.23 41.8556C56.23 42.4233 55.7434 42.991 55.0946 42.991Z" fill="#19A1A1"/>
<path d="M54.5272 46.0726V42.9907H34.4951V46.0726L31.0888 48.1812C29.6289 49.0734 28.7368 50.6143 28.7368 52.3175V71.052C28.7368 73.7284 30.9266 75.9181 33.6029 75.9181H55.3383C58.0146 75.9181 60.2044 73.7284 60.2044 71.052V52.3986C60.2044 50.6954 59.3123 49.1545 57.8524 48.2624L54.5272 46.0726Z" fill="#CEE0F6"/>
<path d="M53.0671 48.0194H35.8734L32.9538 49.8036C31.7372 50.5335 31.0073 51.9123 31.0073 53.3721V69.4303C31.0073 71.7823 32.8727 73.6476 35.2246 73.6476H53.797C56.1489 73.6476 58.0143 71.7823 58.0143 69.4303V53.3721C58.0143 51.9123 57.2844 50.5335 56.0678 49.8036L53.0671 48.0194Z" fill="#F5B11C"/>
<path opacity="0.2" d="M60.2856 54.9938V52.3175C60.2856 50.6143 59.3935 49.0734 57.9336 48.1812L54.5273 46.0726V42.9907H44.4707V55.0749H60.2856V54.9938Z" fill="#19A1A1"/>
<path opacity="0.2" d="M60.2856 71.0526V67.2408H44.4707V75.9998H55.3384C58.0147 75.9998 60.2856 73.81 60.2856 71.0526Z" fill="#19A1A1"/>
<path d="M60.2855 67.2408H28.7368V69.4305H60.2855V67.2408Z" fill="#7DB23E"/>
<path d="M60.2855 52.8047H28.7368V54.9945H60.2855V52.8047Z" fill="#7DB23E"/>
<path d="M60.2855 54.9937H28.7368V67.2401H60.2855V54.9937Z" fill="#C1D852"/>
<path opacity="0.5" d="M54.5273 38.6922C54.5273 37.8001 53.7974 37.1513 52.9864 37.1513H44.4707V40.8009H54.5273V38.6922Z" fill="#19A1A1"/>
<path opacity="0.3" d="M60.2045 54.9937H44.4707V67.2401H60.2045V54.9937Z" fill="#7DB23E"/>
<path d="M37.7388 56.7774H39.9286V57.4262H38.4687V58.2372H39.6853V58.886H38.4687V60.2648H37.6577V56.7774H37.7388Z" fill="#F15B40"/>
<path d="M42.3619 60.2653L41.7131 58.9677H41.3076V60.2653H40.4966V56.778H41.7942C42.5241 56.778 43.1729 57.0213 43.1729 57.8323C43.1729 58.3189 42.9296 58.6433 42.5241 58.8055L43.3352 60.1842H42.3619V60.2653ZM41.3076 58.3189H41.7131C42.1186 58.3189 42.3619 58.1567 42.3619 57.8323C42.3619 57.5079 42.1186 57.3457 41.7131 57.3457H41.3076V58.3189Z" fill="#F15B40"/>
<path d="M43.7412 56.778H44.5522V58.7244C44.5522 59.3732 44.7955 59.6165 45.1199 59.6165C45.5255 59.6165 45.7688 59.3732 45.7688 58.7244V56.778H46.5798V58.6433C46.5798 59.7787 46.0932 60.3464 45.201 60.3464C44.3089 60.3464 43.8223 59.8598 43.8223 58.6433V56.778H43.7412Z" fill="#F15B40"/>
<path d="M47.3096 56.778H48.1206V60.2653H47.3096V56.778Z" fill="#F15B40"/>
<path d="M49.5806 57.4268H48.6074V56.778H51.2838V57.4268H50.3106V60.2653H49.4995V57.4268H49.5806Z" fill="#F15B40"/>
<path d="M36.8472 61.9685H38.1448C38.8747 61.9685 39.5235 62.2118 39.5235 63.104C39.5235 63.915 38.8747 64.3205 38.1448 64.3205H37.6582V65.537H36.8472V61.9685ZM38.0637 63.6717C38.4692 63.6717 38.7125 63.5095 38.7125 63.104C38.7125 62.7796 38.4692 62.6174 38.0637 62.6174H37.6582V63.6717H38.0637Z" fill="#F15B40"/>
<path d="M40.0913 61.969H40.9023V63.9154C40.9023 64.5643 41.1456 64.8076 41.47 64.8076C41.8756 64.8076 42.1189 64.5643 42.1189 63.9154V61.969H42.8488V63.8343C42.8488 64.9698 42.3622 65.5375 41.47 65.5375C40.5779 65.5375 40.0913 65.0509 40.0913 63.8343V61.969Z" fill="#F15B40"/>
<path d="M45.525 65.4564L44.8762 64.1587H44.4707V65.4564H43.6597V61.969H44.9573C45.6872 61.969 46.336 62.2123 46.336 63.0233C46.336 63.5099 46.0927 63.8343 45.6872 63.9965L46.4982 65.3753H45.525V65.4564ZM44.4707 63.591H44.8762C45.2817 63.591 45.525 63.4288 45.525 63.1044C45.525 62.78 45.2817 62.6178 44.8762 62.6178H44.4707V63.591Z" fill="#F15B40"/>
<path d="M46.9043 61.969H49.0941V62.6178H47.7153V63.3477H48.9318V63.9965H47.7153V64.8076H49.1752V65.4564H46.9043V61.969Z" fill="#F15B40"/>
<path d="M49.8237 61.969H52.0135V62.6178H50.6348V63.3477H51.8513V63.9965H50.6348V64.8076H52.0946V65.4564H49.8237V61.969Z" fill="#F15B40"/>
<path d="M31.0073 62.374V53.4528C31.0073 51.9119 31.7372 50.452 32.9538 49.5599L35.6301 47.5324C36.1167 47.1268 40.9829 46.5591 36.9278 49.3166L34.738 50.9386C33.7648 51.6686 32.8727 53.1284 32.4672 54.5071L31.6561 62.6173C31.6561 63.2661 31.3317 68.1323 31.0073 62.374Z" fill="#F2F2F2"/>
</g>
<defs>
<filter id="filter0_d" x="0" y="0" width="180" height="140" filterUnits="userSpaceOnUse" color-interpolation-filters="sRGB">
<feFlood flood-opacity="0" result="BackgroundImageFix"/>
<feColorMatrix in="SourceAlpha" type="matrix" values="0 0 0 0 0 0 0 0 0 0 0 0 0 0 0 0 0 0 127 0"/>
<feOffset dy="3"/>
<feGaussianBlur stdDeviation="5"/>
<feColorMatrix type="matrix" values="0 0 0 0 0.105486 0 0 0 0 0.243931 0 0 0 0 0.408333 0 0 0 0.08 0"/>
<feBlend mode="normal" in2="BackgroundImageFix" result="effect1_dropShadow"/>
<feBlend mode="normal" in="SourceGraphic" in2="effect1_dropShadow" result="shape"/>
</filter>
</defs>
</svg>
