<svg width="182" height="34" viewBox="0 0 182 34" fill="none" xmlns="http://www.w3.org/2000/svg">
<g clip-path="url(#clip0)">
<path d="M27.4627 8.1768C25.9052 4.56871 22.4529 2.20658 18.6371 1.32403C14.9252 0.467436 10.2788 0.778926 7.5533 3.4785C5.37287 5.63297 3.16649 8.56616 3.14053 13.3423C3.0367 13.2904 2.95883 13.2645 2.855 13.2385C2.4916 13.1347 2.10223 13.1347 1.73883 13.2385C0.960107 13.4462 0.285214 14.0691 0.0775539 14.9257C-0.259893 16.1717 0.466916 17.4436 1.68692 17.7551C1.92053 17.807 2.18011 17.833 2.41372 17.807C2.33585 21.467 3.84138 24.2704 6.38521 26.7104C7.86479 28.164 10.1231 29.6176 12.2516 30.1628C14.5099 30.7598 16.4307 30.5002 18.4554 29.6696C21.6741 28.3457 24.2699 27.0479 25.9312 23.933C26.1388 24.0628 26.3465 24.1666 26.6061 24.2445C27.8261 24.5559 29.0461 23.8032 29.3835 22.5572C29.5912 21.7525 29.3835 20.9479 28.8903 20.4028C28.6048 20.0913 27.8001 19.7279 27.8001 19.7279C29.4873 14.4066 28.6307 10.8504 27.4627 8.1768Z" fill="#F0D0B0"/>
<path d="M11.654 16.1455C11.4204 17.028 11.0311 15.5744 10.1745 15.3408C9.29192 15.1072 8.25362 16.1974 8.48724 15.3148C8.72086 14.4323 9.60341 13.9131 10.486 14.1467C11.3685 14.3544 11.8877 15.2629 11.654 16.1455Z" fill="#382417"/>
<path d="M21.9592 18.8191C21.7256 19.7016 21.3362 18.248 20.4797 18.0144C19.5971 17.7808 18.5588 18.871 18.7924 17.9884C19.026 17.1059 19.9086 16.5867 20.7911 16.8203C21.6737 17.0539 22.1928 17.9365 21.9592 18.8191Z" fill="#382417"/>
<path d="M2.90661 14.3803C2.90661 14.3803 1.53087 13.8352 1.16747 15.185C0.778104 16.5867 2.46534 16.7684 2.46534 16.7684L2.90661 14.3803Z" fill="#E2B586"/>
<path d="M15.9372 19.9612C15.9372 19.9612 16.3785 18.8191 15.2623 18.5076C14.0942 18.1961 13.9385 19.5978 13.9385 19.5978L15.9372 19.9612Z" fill="#E2B586"/>
<path d="M27.2026 20.7141C27.2026 20.7141 28.6821 20.9218 28.3447 22.2716C28.0072 23.6733 26.4238 23.0243 26.4238 23.0243L27.2026 20.7141Z" fill="#E2B586"/>
<path d="M12.5627 26.3209C16.4044 27.6967 18.1955 24.3222 18.7925 22.7647C18.9482 22.4013 18.7146 21.9601 18.3252 21.8562L10.1746 19.7277C9.78524 19.6239 9.39588 19.8835 9.34396 20.2988C9.1363 21.7784 9.1363 25.075 12.5627 26.3209Z" fill="#E8A2CC"/>
<path d="M9.62917 23.4913C12.4585 22.4011 15.7032 22.3751 18.3249 23.8028C18.5326 23.4134 18.6883 23.05 18.7921 22.7645C18.9479 22.4011 18.7143 21.9598 18.3249 21.856L10.1743 19.7275C9.78491 19.6237 9.39555 19.8832 9.34364 20.2985C9.23981 21.0773 9.18789 22.2973 9.62917 23.4913Z" fill="#382417"/>
<path d="M10.9274 10.7982C10.2525 10.6425 9.6295 10.7723 8.98056 10.954C8.38354 11.1097 7.68269 11.4212 7.3712 11.9923C7.34524 12.0442 7.26737 12.2259 7.34524 12.2519C7.52695 12.3297 7.70865 12.2 7.86439 12.1221C8.17588 11.9404 8.53929 11.8365 8.87673 11.7327C9.55163 11.5251 10.2265 11.3693 10.8755 11.0838C10.9274 11.0578 11.0052 10.8242 10.9274 10.7982Z" fill="#7A4522"/>
<path d="M24.4773 15.4965C23.9322 14.3803 22.9977 13.3939 21.8556 12.8748C21.8036 12.8488 21.7777 13.0565 21.8036 13.0825C22.219 13.5757 22.6602 14.0429 23.1015 14.5101C23.5168 14.9514 23.9062 15.3927 24.3994 15.7042C24.4513 15.7561 24.4773 15.5225 24.4773 15.4965Z" fill="#7A4522"/>
<path d="M18.3516 2.57001C17.7805 2.67384 17.2614 3.01129 16.846 3.45257C16.7682 3.42661 16.7163 3.40065 16.6643 3.34874C15.626 2.77767 17.0797 1.40193 17.5209 1.03852C17.8584 0.778948 18.2737 0.623203 18.689 0.571289C18.8188 0.545331 19.6235 0.597246 19.3899 0.85682C18.8188 1.58363 17.469 2.07682 16.6384 2.31044C16.5086 2.33639 16.5345 2.77767 16.6384 2.77767C17.469 2.6998 21.129 1.03852 19.1563 0.155969C17.1316 -0.752541 14.8992 2.67384 16.4048 4.1015C16.1971 4.49086 16.0933 4.90618 16.0933 5.34746C16.0933 6.87895 17.4171 7.68363 18.7669 6.77512C18.8707 6.69725 18.8707 6.30788 18.7669 6.25597C18.118 6.02235 17.4431 6.12618 16.8201 5.78874C16.3009 5.5032 16.5605 4.98405 17.0018 4.49086C17.8584 4.82831 19.312 4.69852 19.6235 3.76405C19.9609 2.6998 19.286 2.38831 18.3516 2.57001ZM18.689 3.60831C18.4554 3.68618 18.1699 3.71214 17.9103 3.68618C18.118 3.55639 18.2997 3.45257 18.4035 3.40065C18.8707 3.24491 19.7014 3.29682 18.689 3.60831Z" fill="#7A4522"/>
</g>
<path d="M48.9375 15.9894C50.132 16.2466 51.0968 16.8163 51.8319 17.6985C52.5854 18.5806 52.9622 19.6189 52.9622 20.8134C52.9622 22.3939 52.42 23.662 51.3358 24.6176C50.2699 25.5732 48.717 26.051 46.6771 26.051H39.4547V6.61685H46.5668C48.5148 6.61685 49.9942 7.04872 51.005 7.91246C52.0157 8.7762 52.5211 9.96155 52.5211 11.4685C52.5211 12.7182 52.1811 13.7289 51.5012 14.5008C50.8396 15.2726 49.985 15.7688 48.9375 15.9894ZM41.9632 15.1348H46.1533C47.3846 15.1348 48.3218 14.85 48.9651 14.2803C49.6266 13.7106 49.9574 12.9111 49.9574 11.882C49.9574 10.8896 49.6358 10.1086 48.9926 9.53887C48.3494 8.96916 47.3662 8.68431 46.043 8.68431H41.9632V15.1348ZM46.2084 23.956C47.5316 23.956 48.5516 23.6528 49.2683 23.0463C50.0034 22.4399 50.3709 21.5853 50.3709 20.4827C50.3709 19.3984 49.9942 18.553 49.2407 17.9466C48.5056 17.3217 47.4765 17.0093 46.1533 17.0093H41.9632V23.956H46.2084ZM62.2937 10.7242C63.7639 10.7242 65.0044 11.0918 66.0152 11.8269C67.0443 12.562 67.761 13.5452 68.1654 14.7764V10.9172H70.6739V26.051H68.1654V22.1918C67.761 23.423 67.0443 24.4062 66.0152 25.1413C65.0044 25.8764 63.7639 26.244 62.2937 26.244C60.9522 26.244 59.7577 25.9316 58.7101 25.3067C57.6626 24.6819 56.8356 23.7906 56.2292 22.6328C55.6411 21.4567 55.3471 20.0783 55.3471 18.4979C55.3471 16.9174 55.6411 15.5391 56.2292 14.363C56.8356 13.1868 57.6626 12.2863 58.7101 11.6615C59.7577 11.0366 60.9522 10.7242 62.2937 10.7242ZM63.0105 12.9571C61.4668 12.9571 60.2263 13.4533 59.289 14.4457C58.3702 15.4197 57.9107 16.7704 57.9107 18.4979C57.9107 20.2254 58.3702 21.5853 59.289 22.5777C60.2263 23.5517 61.4668 24.0387 63.0105 24.0387C64.0029 24.0387 64.885 23.809 65.6568 23.3495C66.4471 22.8901 67.0627 22.2469 67.5038 21.4199C67.9448 20.5745 68.1654 19.6005 68.1654 18.4979C68.1654 17.3952 67.9448 16.4212 67.5038 15.5759C67.0627 14.7305 66.4471 14.0873 65.6568 13.6462C64.885 13.1868 64.0029 12.9571 63.0105 12.9571ZM83.0188 10.7242C84.3604 10.7242 85.5549 11.0366 86.6024 11.6615C87.6499 12.2863 88.4677 13.1868 89.0558 14.363C89.6623 15.5391 89.9655 16.9174 89.9655 18.4979C89.9655 20.0783 89.6623 21.4567 89.0558 22.6328C88.4677 23.7906 87.6499 24.6819 86.6024 25.3067C85.5549 25.9316 84.3604 26.244 83.0188 26.244C81.5486 26.244 80.2989 25.8764 79.2698 25.1413C78.259 24.3879 77.5607 23.4047 77.1748 22.1918V26.051H74.6662V5.65203H77.1748V14.7764C77.5607 13.5635 78.259 12.5895 79.2698 11.8544C80.2989 11.101 81.5486 10.7242 83.0188 10.7242ZM82.3021 12.9571C81.3281 12.9571 80.446 13.1868 79.6557 13.6462C78.8655 14.0873 78.2498 14.7305 77.8088 15.5759C77.3677 16.4212 77.1472 17.3952 77.1472 18.4979C77.1472 19.6005 77.3677 20.5745 77.8088 21.4199C78.2498 22.2469 78.8655 22.8901 79.6557 23.3495C80.446 23.809 81.3281 24.0387 82.3021 24.0387C83.8642 24.0387 85.1046 23.5517 86.0235 22.5777C86.9608 21.5853 87.4294 20.2254 87.4294 18.4979C87.4294 16.7704 86.9608 15.4197 86.0235 14.4457C85.1046 13.4533 83.8642 12.9571 82.3021 12.9571ZM94.2886 10.9172L99.1954 22.8258L103.744 10.9172H106.528L97.5415 33.2182H94.7021L97.8447 25.8029L91.4769 10.9172H94.2886ZM124.239 6.42389C126.61 6.42389 128.567 7.01196 130.111 8.18812C131.655 9.3459 132.721 10.9356 133.309 12.9571H130.662C130.166 11.6707 129.367 10.6507 128.264 9.89723C127.161 9.12537 125.811 8.73945 124.212 8.73945C122.944 8.73945 121.804 9.05186 120.794 9.6767C119.801 10.2832 119.011 11.1653 118.423 12.3231C117.853 13.4625 117.568 14.804 117.568 16.3477C117.568 17.873 117.853 19.2054 118.423 20.3448C119.011 21.4842 119.801 22.3663 120.794 22.9912C121.804 23.5976 122.944 23.9009 124.212 23.9009C125.811 23.9009 127.161 23.5241 128.264 22.7706C129.367 21.9988 130.166 20.9697 130.662 19.6832H133.309C132.721 21.7048 131.655 23.3036 130.111 24.4798C128.567 25.6375 126.61 26.2164 124.239 26.2164C122.42 26.2164 120.812 25.8029 119.415 24.9759C118.019 24.1306 116.925 22.9636 116.135 21.475C115.363 19.9681 114.977 18.259 114.977 16.3477C114.977 14.4181 115.363 12.6998 116.135 11.1928C116.925 9.68589 118.019 8.51892 119.415 7.69193C120.812 6.84657 122.42 6.42389 124.239 6.42389ZM142.866 10.7242C144.336 10.7242 145.576 11.0918 146.587 11.8269C147.616 12.562 148.333 13.5452 148.737 14.7764V10.9172H151.246V26.051H148.737V22.1918C148.333 23.423 147.616 24.4062 146.587 25.1413C145.576 25.8764 144.336 26.244 142.866 26.244C141.524 26.244 140.33 25.9316 139.282 25.3067C138.235 24.6819 137.408 23.7906 136.801 22.6328C136.213 21.4567 135.919 20.0783 135.919 18.4979C135.919 16.9174 136.213 15.5391 136.801 14.363C137.408 13.1868 138.235 12.2863 139.282 11.6615C140.33 11.0366 141.524 10.7242 142.866 10.7242ZM143.582 12.9571C142.039 12.9571 140.798 13.4533 139.861 14.4457C138.942 15.4197 138.483 16.7704 138.483 18.4979C138.483 20.2254 138.942 21.5853 139.861 22.5777C140.798 23.5517 142.039 24.0387 143.582 24.0387C144.575 24.0387 145.457 23.809 146.229 23.3495C147.019 22.8901 147.635 22.2469 148.076 21.4199C148.517 20.5745 148.737 19.6005 148.737 18.4979C148.737 17.3952 148.517 16.4212 148.076 15.5759C147.635 14.7305 147.019 14.0873 146.229 13.6462C145.457 13.1868 144.575 12.9571 143.582 12.9571ZM157.747 13.977C158.243 12.9295 158.969 12.1209 159.924 11.5512C160.88 10.9631 162.019 10.6691 163.343 10.6691V13.3981H162.571C161.156 13.3981 159.998 13.7657 159.097 14.5008C158.197 15.2175 157.747 16.412 157.747 18.0844V26.051H155.238V10.9172H157.747V13.977ZM179.739 17.6433C179.739 18.1763 179.702 18.6357 179.628 19.0216H167.527C167.582 20.7491 168.069 22.0447 168.988 22.9085C169.925 23.7722 171.065 24.2041 172.406 24.2041C173.619 24.2041 174.63 23.9009 175.438 23.2944C176.265 22.6696 176.771 21.8426 176.955 20.8134H179.628C179.445 21.861 179.031 22.7982 178.388 23.6252C177.763 24.4522 176.945 25.0954 175.935 25.5548C174.924 26.0143 173.784 26.244 172.516 26.244C171.065 26.244 169.778 25.9316 168.657 25.3067C167.536 24.6819 166.654 23.7906 166.011 22.6328C165.386 21.4567 165.073 20.0783 165.073 18.4979C165.073 16.9174 165.386 15.5391 166.011 14.363C166.654 13.1868 167.536 12.2863 168.657 11.6615C169.778 11.0366 171.065 10.7242 172.516 10.7242C173.987 10.7242 175.264 11.0366 176.348 11.6615C177.451 12.2863 178.287 13.1225 178.857 14.17C179.445 15.2175 179.739 16.3753 179.739 17.6433ZM177.203 17.8087C177.258 16.6877 177.074 15.7505 176.651 14.997C176.229 14.2435 175.65 13.683 174.915 13.3154C174.18 12.9479 173.38 12.7641 172.516 12.7641C171.138 12.7641 169.98 13.196 169.043 14.0597C168.106 14.9051 167.6 16.1548 167.527 17.8087H177.203Z" fill="#154681"/>
<defs>
<clipPath id="clip0">
<rect width="29.4877" height="30.5" fill="white"/>
</clipPath>
</defs>
</svg>
