<svg width="180" height="35" viewBox="0 0 180 35" fill="none" xmlns="http://www.w3.org/2000/svg">
<path fill-rule="evenodd" clip-rule="evenodd" d="M14.5605 29.9999C22.5555 29.9749 29.0241 23.233 28.9999 14.9373C28.9756 6.66671 22.4585 -0.0249924 14.4394 7.01711e-05C6.44441 0.0501953 0 6.76696 0 15.0125C0.0242271 23.3082 6.54132 30.025 14.5605 29.9999Z" fill="#F06428"/>
<path d="M46.9375 16.9893C48.132 17.2466 49.0968 17.8163 49.8319 18.6984C50.5854 19.5805 50.9622 20.6188 50.9622 21.8134C50.9622 23.3938 50.42 24.6619 49.3358 25.6175C48.2699 26.5732 46.717 27.051 44.6771 27.051H37.4547V7.61679H44.5668C46.5148 7.61679 47.9942 8.04866 49.005 8.9124C50.0157 9.77614 50.5211 10.9615 50.5211 12.4684C50.5211 13.7181 50.1811 14.7289 49.5012 15.5007C48.8396 16.2726 47.985 16.7688 46.9375 16.9893ZM39.9632 16.1347H44.1533C45.3846 16.1347 46.3218 15.8499 46.9651 15.2802C47.6266 14.7105 47.9574 13.9111 47.9574 12.8819C47.9574 11.8895 47.6358 11.1085 46.9926 10.5388C46.3494 9.9691 45.3662 9.68425 44.043 9.68425H39.9632V16.1347ZM44.2084 24.9559C45.5316 24.9559 46.5516 24.6527 47.2683 24.0462C48.0034 23.4398 48.3709 22.5852 48.3709 21.4826C48.3709 20.3983 47.9942 19.553 47.2407 18.9465C46.5056 18.3217 45.4765 18.0092 44.1533 18.0092H39.9632V24.9559H44.2084ZM60.2937 11.7242C61.7639 11.7242 63.0044 12.0917 64.0152 12.8268C65.0443 13.5619 65.761 14.5451 66.1654 15.7764V11.9171H68.6739V27.051H66.1654V23.1917C65.761 24.423 65.0443 25.4062 64.0152 26.1413C63.0044 26.8764 61.7639 27.2439 60.2937 27.2439C58.9522 27.2439 57.7577 26.9315 56.7101 26.3067C55.6626 25.6818 54.8356 24.7905 54.2292 23.6328C53.6411 22.4566 53.3471 21.0783 53.3471 19.4978C53.3471 17.9174 53.6411 16.539 54.2292 15.3629C54.8356 14.1867 55.6626 13.2862 56.7101 12.6614C57.7577 12.0366 58.9522 11.7242 60.2937 11.7242ZM61.0105 13.957C59.4668 13.957 58.2263 14.4532 57.289 15.4456C56.3702 16.4196 55.9107 17.7703 55.9107 19.4978C55.9107 21.2253 56.3702 22.5852 57.289 23.5776C58.2263 24.5516 59.4668 25.0386 61.0105 25.0386C62.0029 25.0386 62.885 24.8089 63.6568 24.3495C64.4471 23.89 65.0627 23.2468 65.5038 22.4198C65.9448 21.5745 66.1654 20.6005 66.1654 19.4978C66.1654 18.3952 65.9448 17.4212 65.5038 16.5758C65.0627 15.7304 64.4471 15.0872 63.6568 14.6462C62.885 14.1867 62.0029 13.957 61.0105 13.957ZM81.0188 11.7242C82.3604 11.7242 83.5549 12.0366 84.6024 12.6614C85.6499 13.2862 86.4677 14.1867 87.0558 15.3629C87.6623 16.539 87.9655 17.9174 87.9655 19.4978C87.9655 21.0783 87.6623 22.4566 87.0558 23.6328C86.4677 24.7905 85.6499 25.6818 84.6024 26.3067C83.5549 26.9315 82.3604 27.2439 81.0188 27.2439C79.5486 27.2439 78.2989 26.8764 77.2698 26.1413C76.259 25.3878 75.5607 24.4046 75.1748 23.1917V27.051H72.6662V6.65197H75.1748V15.7764C75.5607 14.5635 76.259 13.5895 77.2698 12.8544C78.2989 12.1009 79.5486 11.7242 81.0188 11.7242ZM80.3021 13.957C79.3281 13.957 78.446 14.1867 77.6557 14.6462C76.8655 15.0872 76.2498 15.7304 75.8088 16.5758C75.3677 17.4212 75.1472 18.3952 75.1472 19.4978C75.1472 20.6005 75.3677 21.5745 75.8088 22.4198C76.2498 23.2468 76.8655 23.89 77.6557 24.3495C78.446 24.8089 79.3281 25.0386 80.3021 25.0386C81.8642 25.0386 83.1046 24.5516 84.0235 23.5776C84.9608 22.5852 85.4294 21.2253 85.4294 19.4978C85.4294 17.7703 84.9608 16.4196 84.0235 15.4456C83.1046 14.4532 81.8642 13.957 80.3021 13.957ZM92.2886 11.9171L97.1954 23.8257L101.744 11.9171H104.528L95.5415 34.2182H92.7021L95.8447 26.8029L89.4769 11.9171H92.2886ZM122.239 7.42382C124.61 7.42382 126.567 8.0119 128.111 9.18806C129.655 10.3458 130.721 11.9355 131.309 13.957H128.662C128.166 12.6706 127.367 11.6506 126.264 10.8972C125.161 10.1253 123.811 9.73939 122.212 9.73939C120.944 9.73939 119.804 10.0518 118.794 10.6766C117.801 11.2831 117.011 12.1652 116.423 13.323C115.853 14.4624 115.568 15.804 115.568 17.3477C115.568 18.873 115.853 20.2054 116.423 21.3448C117.011 22.4842 117.801 23.3663 118.794 23.9911C119.804 24.5976 120.944 24.9008 122.212 24.9008C123.811 24.9008 125.161 24.5241 126.264 23.7706C127.367 22.9987 128.166 21.9696 128.662 20.6832H131.309C130.721 22.7047 129.655 24.3035 128.111 25.4797C126.567 26.6375 124.61 27.2164 122.239 27.2164C120.42 27.2164 118.812 26.8029 117.415 25.9759C116.019 25.1305 114.925 23.9635 114.135 22.475C113.363 20.968 112.977 19.2589 112.977 17.3477C112.977 15.418 113.363 13.6997 114.135 12.1928C114.925 10.6858 116.019 9.51886 117.415 8.69187C118.812 7.84651 120.42 7.42382 122.239 7.42382ZM140.866 11.7242C142.336 11.7242 143.576 12.0917 144.587 12.8268C145.616 13.5619 146.333 14.5451 146.737 15.7764V11.9171H149.246V27.051H146.737V23.1917C146.333 24.423 145.616 25.4062 144.587 26.1413C143.576 26.8764 142.336 27.2439 140.866 27.2439C139.524 27.2439 138.33 26.9315 137.282 26.3067C136.235 25.6818 135.408 24.7905 134.801 23.6328C134.213 22.4566 133.919 21.0783 133.919 19.4978C133.919 17.9174 134.213 16.539 134.801 15.3629C135.408 14.1867 136.235 13.2862 137.282 12.6614C138.33 12.0366 139.524 11.7242 140.866 11.7242ZM141.582 13.957C140.039 13.957 138.798 14.4532 137.861 15.4456C136.942 16.4196 136.483 17.7703 136.483 19.4978C136.483 21.2253 136.942 22.5852 137.861 23.5776C138.798 24.5516 140.039 25.0386 141.582 25.0386C142.575 25.0386 143.457 24.8089 144.229 24.3495C145.019 23.89 145.635 23.2468 146.076 22.4198C146.517 21.5745 146.737 20.6005 146.737 19.4978C146.737 18.3952 146.517 17.4212 146.076 16.5758C145.635 15.7304 145.019 15.0872 144.229 14.6462C143.457 14.1867 142.575 13.957 141.582 13.957ZM155.747 14.977C156.243 13.9294 156.969 13.1208 157.924 12.5511C158.88 11.9631 160.019 11.669 161.343 11.669V14.3981H160.571C159.156 14.3981 157.998 14.7656 157.097 15.5007C156.197 16.2174 155.747 17.412 155.747 19.0843V27.051H153.238V11.9171H155.747V14.977ZM177.739 18.6433C177.739 19.1762 177.702 19.6357 177.628 20.0216H165.527C165.582 21.7491 166.069 23.0447 166.988 23.9084C167.925 24.7722 169.065 25.204 170.406 25.204C171.619 25.204 172.63 24.9008 173.438 24.2943C174.265 23.6695 174.771 22.8425 174.955 21.8134H177.628C177.445 22.8609 177.031 23.7982 176.388 24.6251C175.763 25.4521 174.945 26.0953 173.935 26.5548C172.924 27.0142 171.784 27.2439 170.516 27.2439C169.065 27.2439 167.778 26.9315 166.657 26.3067C165.536 25.6818 164.654 24.7905 164.011 23.6328C163.386 22.4566 163.073 21.0783 163.073 19.4978C163.073 17.9174 163.386 16.539 164.011 15.3629C164.654 14.1867 165.536 13.2862 166.657 12.6614C167.778 12.0366 169.065 11.7242 170.516 11.7242C171.987 11.7242 173.264 12.0366 174.348 12.6614C175.451 13.2862 176.287 14.1224 176.857 15.1699C177.445 16.2174 177.739 17.3752 177.739 18.6433ZM175.203 18.8087C175.258 17.6876 175.074 16.7504 174.651 15.9969C174.229 15.2434 173.65 14.6829 172.915 14.3154C172.18 13.9478 171.38 13.7641 170.516 13.7641C169.138 13.7641 167.98 14.1959 167.043 15.0597C166.106 15.905 165.6 17.1547 165.527 18.8087H175.203Z" fill="#154681"/>
</svg>
