<svg width="180" height="140" viewBox="0 0 180 140" fill="none" xmlns="http://www.w3.org/2000/svg">
<g filter="url(#filter0_d)">
<rect x="10" y="7" width="160" height="120" rx="16.3718" fill="#F4E7FF"/>
<rect x="10.0236" y="7.02361" width="159.953" height="119.953" rx="16.3482" stroke="#D17150" stroke-width="0.0472264"/>
</g>
<mask id="mask0" mask-type="alpha" maskUnits="userSpaceOnUse" x="10" y="7" width="160" height="120">
<rect x="10.0236" y="7.02361" width="159.953" height="119.953" rx="16.3482" fill="#FFF9F3" stroke="#D17150" stroke-width="0.0472264"/>
</mask>
<g mask="url(#mask0)">
<path d="M73.8259 65.075C73.8728 66.1921 73.1136 67.2982 71.8729 68.2366C68.1369 71.1508 59.3768 73.166 49.293 73.0793C39.1955 73.0917 30.5037 70.977 26.7724 68.0363C25.4956 67.0515 24.8407 65.951 24.7937 64.834C24.8042 60.3933 35.8064 56.771 49.3266 56.8297C62.8468 56.8884 73.8501 60.5353 73.8259 65.075Z" fill="#F1F2F2"/>
<path d="M73.779 63.958C73.826 65.075 73.0667 66.1812 71.826 67.1196C68.09 70.0338 59.3299 72.049 49.2462 71.9623C39.1486 71.9746 30.4568 69.86 26.7255 66.9193C25.4488 65.9345 24.7938 64.834 24.7469 63.717C24.7573 59.2763 35.7595 55.654 49.2797 55.7127C62.899 55.7851 73.8032 59.4182 73.779 63.958Z" fill="white"/>
<path d="M63.9926 63.9125C64.023 64.4215 63.5443 64.9609 62.7685 65.459C60.5538 66.868 55.2686 67.8509 49.2156 67.8187C43.1626 67.7865 37.9541 66.7609 35.728 65.3415C34.9906 64.8354 34.5503 64.3705 34.5337 63.7624C34.5389 61.5421 41.1365 59.8326 49.2117 59.8425C57.4851 59.8799 63.9978 61.6922 63.9926 63.9125Z" fill="#E6E7E8"/>
<path d="M75.4731 38.6507L75.4461 42.4834C75.3708 55.3955 64.9472 65.7613 52.0351 65.686L46.5901 65.6372C46.491 65.6235 46.491 65.6235 46.392 65.6097C33.5926 65.4491 23.2268 55.0256 23.2884 42.2125L23.3154 38.3798L75.4731 38.6507Z" fill="white"/>
<path d="M75.4731 38.6507L75.4461 42.4833C75.3708 55.3955 64.9473 65.7613 52.0351 65.686L46.5902 65.6372C46.4911 65.6235 46.4911 65.6235 46.3921 65.6097C48.3977 64.9794 49.4707 64.5225 50.8683 63.9088C53.5645 62.6676 55.4408 61.5145 57.3004 59.7534C63.3307 54.1288 67.5008 46.6307 69.222 38.591L75.4731 38.6507Z" fill="#D1D3D4"/>
<path d="M49.4134 46.746C44.4637 46.7659 39.5827 46.2906 35.4501 45.5152C32.4923 45.0039 28.5852 44.0579 25.9905 42.3854C25.154 41.8655 24.6284 41.2878 24.1028 40.7101C23.591 40.0333 23.3047 39.186 23.3156 38.3798C23.3265 37.5737 23.6345 36.8087 24.1407 36.0713C24.6194 35.532 25.2108 34.9073 25.9866 34.4092C27.3264 33.4846 29.2468 32.7415 31.6624 32.067C36.3808 30.8035 42.7419 30.0708 49.403 30.0864C56.064 30.102 62.417 30.8826 67.1881 32.1503C69.6231 32.7911 71.5217 33.6602 72.8122 34.546C73.5496 35.0522 74.1743 35.6436 74.6008 36.2076C75.1126 36.8844 75.3989 37.7317 75.388 38.5379C75.3771 39.344 75.0691 40.109 74.5629 40.8464C74.0842 41.3857 73.4928 42.0104 72.717 42.5085C70.1639 44.1734 66.1938 45.1369 63.2967 45.6436C59.156 46.3815 54.3494 46.8251 49.4134 46.746Z" fill="#E6E7E8"/>
<path d="M73.96 38.6427C73.9354 39.5479 73.3027 40.4696 71.9766 41.2952C68.2103 43.7004 59.5052 45.3194 49.4077 45.3318C39.3102 45.3441 30.5771 43.5267 26.8625 41.194C25.5582 40.4073 24.8757 39.5049 24.9141 38.5007C24.9274 34.7671 35.9325 31.8519 49.4527 31.9106C62.9867 31.8703 73.9733 34.909 73.96 38.6427Z" fill="#D1D3D4"/>
<path d="M71.9906 41.1962C68.2243 43.6014 59.5192 45.2204 49.4217 45.2327C47.8094 45.2109 46.2961 45.2029 44.7966 45.0958C36.6773 44.6759 30.038 43.048 26.8764 41.0949C29.7541 39.2731 35.5043 37.8499 42.5449 37.3125C44.7928 37.1196 47.0269 37.0257 49.4453 37.0584C59.5428 37.046 68.1769 38.8498 71.9906 41.1962Z" fill="#E23939"/>
<path d="M71.9906 41.1962C68.2243 43.6014 59.5192 45.2204 49.4217 45.2327C47.8094 45.2109 46.2961 45.2029 44.7966 45.0958C46.0677 44.6664 47.3663 44.0389 48.5795 43.2986C49.2563 42.7868 52.5164 41.119 52.2852 39.8754C52.0264 38.8299 48.1525 39.1001 47.2473 39.0754C45.7478 38.9683 43.7805 38.5944 42.5312 37.4115C44.7791 37.2186 47.0132 37.1248 49.4316 37.1574C59.5429 37.046 68.1769 38.8498 71.9906 41.1962Z" fill="#CC1E11"/>
<path d="M51.3913 42.6792C49.2975 42.4896 47.7923 40.9683 47.7923 40.9683C47.7923 40.9683 48.9667 37.5977 53.0828 37.765C57.2979 37.946 57.2979 37.946 57.2979 37.946C57.2979 37.946 53.9942 42.8384 51.3913 42.6792Z" fill="#8EC63F"/>
<path d="M51.3912 42.6792C49.2974 42.4896 47.7922 40.9683 47.7922 40.9683C47.7922 40.9683 52.1751 40.6678 57.284 38.0451C57.2978 37.946 53.994 42.8384 51.3912 42.6792Z" fill="#33BC71"/>
<path d="M51.1843 40.5304C49.6326 41.5266 47.7644 41.1664 47.7644 41.1664C47.7644 41.1664 46.8616 38.2143 49.9511 36.321C52.9416 34.4139 52.9416 34.4139 52.9416 34.4139C52.9416 34.4139 53.0605 39.3773 51.1843 40.5304Z" fill="#8EC63F"/>
<path d="M51.1843 40.5304C49.6327 41.5266 47.7644 41.1664 47.7644 41.1664C47.7644 41.1664 50.7246 38.7503 52.9554 34.3148C52.9691 34.2158 53.0606 39.3773 51.1843 40.5304Z" fill="#33BC71"/>
<path d="M45.7763 7.47343C48.1317 9.41558 44.4621 14.762 44.4432 17.0814C44.427 20.1079 47.1237 22.5012 46.5986 25.5581C47.5777 22.8671 46.9749 20.6633 46.8507 17.9202C46.7294 15.8842 47.8104 13.9141 47.7028 11.7791C47.7109 10.2658 47.0393 8.5573 45.7763 7.47343Z" fill="#E6E7E8"/>
<path d="M52.0556 10.9696C52.5812 11.5473 52.1248 14.1089 52.0286 14.8022C51.8665 16.6979 50.9533 18.1865 50.6921 20.0685C50.5547 21.059 50.8135 22.1045 51.086 23.0509C51.7438 24.8585 52.0495 27.021 52.8339 28.6442C52.6519 25.5902 52.1149 22.1841 53.1518 19.804C54.6234 16.4747 54.6561 14.0562 52.0556 10.9696Z" fill="#E6E7E8"/>
</g>
<defs>
<filter id="filter0_d" x="0" y="0" width="180" height="140" filterUnits="userSpaceOnUse" color-interpolation-filters="sRGB">
<feFlood flood-opacity="0" result="BackgroundImageFix"/>
<feColorMatrix in="SourceAlpha" type="matrix" values="0 0 0 0 0 0 0 0 0 0 0 0 0 0 0 0 0 0 127 0"/>
<feOffset dy="3"/>
<feGaussianBlur stdDeviation="5"/>
<feColorMatrix type="matrix" values="0 0 0 0 0.105486 0 0 0 0 0.243931 0 0 0 0 0.408333 0 0 0 0.08 0"/>
<feBlend mode="normal" in2="BackgroundImageFix" result="effect1_dropShadow"/>
<feBlend mode="normal" in="SourceGraphic" in2="effect1_dropShadow" result="shape"/>
</filter>
</defs>
</svg>
