<svg width="46" height="41" viewBox="0 0 46 41" fill="none" xmlns="http://www.w3.org/2000/svg">
<path d="M21.3211 38.0371C21.3211 39.6832 20.0042 41.0001 18.3581 41.0001H3.8253C2.17919 41.0001 0.862305 39.6832 0.862305 38.0371V23.5514C0.862305 21.9053 2.17919 20.5884 3.8253 20.5884H18.3581C20.0042 20.5884 21.3211 21.9053 21.3211 23.5514V38.0371Z" fill="#AFC5F0"/>
<path d="M45.449 38.0371C45.449 39.6832 44.1321 41.0001 42.486 41.0001H27.9532C26.3071 41.0001 24.9902 39.6832 24.9902 38.0371V23.5514C24.9902 21.9053 26.3071 20.5884 27.9532 20.5884H42.486C44.1321 20.5884 45.449 21.9053 45.449 23.5514V38.0371Z" fill="#EBC756"/>
<path d="M35.4588 17.4958C35.4588 19.1419 34.1419 20.4588 32.4958 20.4588H17.963C16.3169 20.4588 15 19.1419 15 17.4958V2.96299C15 1.31689 16.3169 0 17.963 0H32.4958C34.1419 0 35.4588 1.31689 35.4588 2.96299V17.4958Z" fill="#FBA5C8"/>
<path d="M11.346 29.7121C11.8409 29.7882 12.3357 29.9024 12.7926 30.0928C13.3636 30.3212 13.8585 30.6638 14.2011 31.1968C14.734 31.9962 14.6198 32.7956 13.9727 33.4808C13.592 33.8615 13.1732 34.0899 12.6784 34.2803C11.9931 34.5467 11.2698 34.7371 10.5846 34.8894C10.0136 35.0416 9.82325 34.9274 9.63291 34.3183C9.4045 33.4808 9.21416 32.6814 9.02382 31.8439C8.64314 30.1308 8.30053 28.4178 7.95791 26.6666C7.88178 26.324 7.95791 26.1337 8.22439 26.0195C8.87155 25.753 9.51871 25.5627 10.2039 25.6769C11.0414 25.8291 11.6886 26.286 11.9551 27.1235C12.2596 27.961 12.1454 28.7223 11.5363 29.4076C11.4221 29.4456 11.3079 29.5218 11.346 29.7121ZM10.8511 30.5115C10.5846 30.5496 10.242 30.5877 9.89939 30.5877C9.67098 30.5877 9.59484 30.6638 9.63291 30.9303C9.86132 31.882 10.0897 32.8337 10.3181 33.7854C10.3562 34.0138 10.4704 34.0899 10.6988 34.0138C11.346 33.8234 11.9931 33.6712 12.6022 33.4047C12.9448 33.2524 13.2874 33.0621 13.5159 32.7195C13.7443 32.453 13.7443 32.1485 13.6301 31.8439C13.4397 31.4252 13.1352 31.1206 12.7164 30.9303C12.1454 30.6257 11.5363 30.5115 10.8511 30.5115ZM9.44257 29.7121C9.93745 29.5218 10.3562 29.2933 10.775 28.9507C11.3079 28.532 11.4221 27.961 11.1937 27.3138C10.9653 26.7809 10.5085 26.4002 9.86132 26.3621C9.59484 26.3621 9.32836 26.4002 9.02382 26.4382C8.75734 26.4763 8.71928 26.6286 8.75734 26.8951C8.94768 27.7326 9.13802 28.6081 9.2903 29.4456C9.36643 29.5598 9.4045 29.636 9.44257 29.7121Z" fill="#154681" stroke="#154681" stroke-width="1.25"/>
<path d="M22.6108 5.2012C22.6108 4.9728 22.6489 4.74439 22.8773 4.63018C23.1057 4.51598 23.3341 4.59211 23.4864 4.74439C23.829 5.087 24.2097 5.42961 24.5523 5.77223C26.3415 7.56142 27.9404 9.5029 29.6154 11.4063C29.6915 11.4824 29.7676 11.5586 29.7676 11.6728C29.8438 11.8631 29.8057 12.0154 29.6534 12.1296C29.5012 12.2438 29.3489 12.2438 29.1966 12.1296C29.0824 12.0535 28.9682 11.9393 28.854 11.787C28.283 11.1398 27.712 10.5307 27.179 9.88358C26.9887 9.65517 26.8364 9.65517 26.608 9.80744C25.9608 10.1881 25.3137 10.5688 24.6665 10.9495C24.4 11.1018 24.4 11.254 24.4381 11.4824C24.5904 12.3199 24.7427 13.1574 24.8949 13.9949C24.933 14.1472 24.933 14.2614 24.933 14.4137C24.933 14.604 24.8188 14.7182 24.6284 14.7182C24.4381 14.7563 24.3239 14.6421 24.2478 14.4898C24.2097 14.4137 24.2097 14.2995 24.1716 14.1853C23.6387 11.5586 23.0677 8.93188 22.687 6.30518C22.687 5.9245 22.6489 5.54382 22.6108 5.2012ZM23.5245 6.0387C23.7529 7.44722 23.9813 8.85574 24.2858 10.2643C24.933 9.88358 25.5421 9.5029 26.1131 9.16028C26.4176 8.96994 26.4176 8.96994 26.1512 8.6654C25.3898 7.78983 24.5904 6.95234 23.7529 6.11484C23.7529 6.07677 23.6767 6.0387 23.5245 6.0387Z" fill="#154681" stroke="#154681" stroke-width="1.25"/>
<path d="M32.0803 31.3057C32.0803 29.9733 32.3087 28.9454 32.8417 27.9937C33.4508 26.9659 34.3263 26.3949 35.5445 26.4329C36.0013 26.4329 36.382 26.6233 36.7627 26.8517C36.915 26.9659 37.0292 27.0801 37.1053 27.2324C37.2195 27.4227 37.2195 27.6131 37.0292 27.7273C36.8769 27.8415 36.6866 27.8415 36.5724 27.6892C36.382 27.4988 36.1917 27.3466 35.9252 27.2704C35.278 27.0801 34.707 27.2324 34.2121 27.6131C33.9457 27.8034 33.7553 28.0318 33.603 28.2983C32.8417 29.7068 32.6513 31.1915 33.1843 32.7522C33.4127 33.4375 33.8315 34.0085 34.4786 34.3511C35.4303 34.846 36.2678 34.6176 36.8769 33.742C36.9911 33.5897 37.0672 33.3994 37.1814 33.2471C37.2956 33.0949 37.4479 32.9807 37.6763 33.0949C37.8667 33.171 37.9428 33.3613 37.8667 33.6278C37.5621 34.8079 36.1155 35.6454 34.8974 35.3789C34.0218 35.1886 33.3366 34.6937 32.8798 33.9324C32.2707 33.0568 32.0803 32.067 32.0803 31.3057Z" fill="#154681" stroke="#154681" stroke-width="1.25"/>
</svg>
