<svg width="74" height="74" viewBox="0 0 74 74" fill="none" xmlns="http://www.w3.org/2000/svg">
<circle opacity="0.2" cx="37" cy="37" r="37" fill="#CC7748"/>
<path d="M57.9992 38.1197C58.0709 40.3606 53.913 42.3914 47.6045 43.6519C44.4502 44.2822 40.7942 44.7024 36.8513 44.8424C25.0229 45.1926 15.4167 42.8116 15.2734 39.4502C15.2017 37.2093 19.3596 35.1785 25.5964 33.918C28.7506 33.2877 32.4784 32.8676 36.4212 32.7275C48.2497 32.3774 57.8558 34.7583 57.9992 38.1197Z" fill="#A75E53"/>
<path d="M57.999 38.1197C58.0707 40.3606 53.9128 42.3914 47.6043 43.6519C46.6723 42.4615 45.9555 41.0609 44.8802 40.0105C44.0916 39.2402 43.2313 38.6099 42.2994 38.0497C38.5 35.7387 34.127 34.4082 29.6824 33.988C28.3203 33.848 26.9583 33.848 25.5962 33.918C28.7504 33.2877 32.4782 32.8676 36.421 32.7275C48.2495 32.3774 57.8556 34.7583 57.999 38.1197Z" fill="#C8796E"/>
<path d="M38.8585 47.6425C38.6435 47.6425 38.3567 47.5725 38.1417 47.4324C36.1344 46.2419 41.1525 36.9281 43.3749 32.9365L44.5936 30.7656L44.2351 33.2166C44.02 34.5472 42.0845 46.2419 39.432 47.5024C39.217 47.5725 39.0019 47.6425 38.8585 47.6425ZM42.873 35.7376C39.8622 41.3399 37.9266 46.1719 38.6435 46.5921C38.7869 46.6621 38.9302 46.6621 39.0736 46.5921C40.4357 46.0318 41.9411 40.4296 42.873 35.7376Z" fill="#FFB669"/>
<path d="M38.9303 47.573H38.8586C38.0701 47.573 37.4249 47.2228 36.9231 46.5926C36.1345 45.5421 35.9911 43.9315 36.2779 42.8811C36.708 41.3404 37.7116 40.15 38.6436 38.8894C38.8586 38.6093 39.0737 38.3292 39.2887 38.0491C40.6508 36.2984 42.0129 34.5477 43.5183 32.937L44.2352 33.4972C43.9484 33.9174 44.0918 36.6485 44.1635 38.2592C44.2352 39.8698 44.3069 41.2004 44.2352 41.9007C43.5183 45.4721 41.5828 47.573 38.9303 47.573ZM43.0882 34.6877C42.0129 35.9482 41.0093 37.2088 40.0056 38.5393C39.7906 38.8194 39.5755 39.0995 39.2887 39.4497C38.3568 40.5701 37.4249 41.7606 37.0664 43.0912C36.8514 43.9315 36.9231 45.192 37.5682 46.0324C37.9267 46.4525 38.2851 46.6626 38.7869 46.6626C41.7978 46.7326 42.8731 43.5814 43.1599 41.6906C43.2316 41.1304 43.1599 39.6598 43.0882 38.2592C43.0882 36.7186 43.0165 35.5281 43.0882 34.6877Z" fill="#FFB669"/>
<path d="M29.8263 41.971C31.1883 40.9906 32.4787 39.8001 34.0558 39.0998C35.9197 38.1894 38.0703 37.9093 40.1493 37.6992C40.436 37.6992 40.7228 37.6992 40.7945 37.9793C40.7945 38.1194 40.7228 38.1894 40.6511 38.3295C39.074 39.9401 36.7083 40.9205 35.633 42.8813C35.4179 43.2315 35.3462 43.7917 35.7046 43.9318C35.848 44.0018 35.9914 44.0018 36.1348 44.0018C37.4968 43.9318 38.9306 43.7917 40.1493 43.3015C41.0095 42.9514 41.7981 42.3911 42.73 42.041C45.5259 40.9205 48.6801 41.8309 51.6193 42.6712C48.5367 45.9626 44.0204 47.5032 39.5758 48.4136C37.3535 48.8338 35.1311 49.1839 32.9088 48.9038C30.3281 48.5536 27.8907 47.4332 26.0985 45.6825C24.8798 44.562 24.8081 44.0718 26.3853 43.7217C27.6039 43.4416 28.7509 42.7413 29.8263 41.971Z" fill="#F2EDAF"/>
<path d="M57.9276 38.5405C57.6408 41.4817 55.3468 59.199 37.2815 59.8292C34.414 59.8992 31.8333 59.5491 29.6826 58.7788C28.5356 58.4286 27.532 57.9384 26.6001 57.4482C25.9549 57.0981 25.3814 56.748 24.8079 56.3278C23.3741 55.3474 22.1554 54.1569 21.1518 52.8964C19.9331 51.4258 18.9295 49.8852 18.1409 48.3445C17.3524 46.7339 16.7789 45.1232 16.2771 43.7927C16.1337 43.4425 16.062 43.0924 15.9903 42.8123C15.9186 42.5322 15.8469 42.3221 15.7753 42.112C15.7036 41.7618 15.6319 41.4817 15.5602 41.2716C15.4168 40.5013 15.3451 39.9411 15.2734 39.661C15.4885 41.0616 17.4241 42.3221 20.5066 43.2324C24.4495 44.4229 30.3278 45.0532 36.7797 44.8431C40.7225 44.703 44.4503 44.2829 47.5329 43.6526C53.4829 42.4621 57.5691 40.5714 57.9276 38.5405Z" fill="#E4B2AB"/>
<path d="M29.6826 58.7775C28.5356 58.4273 27.532 57.9371 26.6001 57.4469C25.9549 57.0968 25.3814 56.7466 24.8079 56.3265C23.3741 55.3461 22.1554 54.1556 21.1518 52.8951C19.9331 51.4245 18.9295 49.8138 18.1409 48.3432C17.3524 46.7325 16.7789 45.1219 16.2771 43.7913C16.1337 43.4412 16.062 43.0911 15.9903 42.811C15.9186 42.5308 15.8469 42.3208 15.7753 42.1107C15.7036 41.7605 15.6319 41.4804 15.5602 41.2703C15.4168 40.5 15.3451 39.9398 15.2734 39.6597C15.4885 41.0602 17.4241 42.3208 20.5066 43.2311C20.65 44.2115 20.7217 45.1219 20.9368 45.6821C21.8687 49.1135 23.5175 52.4049 25.8115 55.136C26.9585 56.4665 28.2489 57.727 29.6826 58.7775Z" fill="#A75E53"/>
<path d="M53.555 14.7999C53.8417 16.7607 52.8381 18.5815 51.8345 20.2621C49.8272 23.8336 47.82 27.4051 45.8127 30.9065C45.4543 31.5367 43.6621 34.4079 43.0169 34.2679C41.5831 33.9177 53.2682 12.629 53.555 14.7999Z" fill="#30653C"/>
</svg>
